<?xml version="1.0" encoding="UTF-8" standalone="no"?>
<!DOCTYPE svg PUBLIC "-//W3C//DTD SVG 1.1//EN" "http://www.w3.org/Graphics/SVG/1.1/DTD/svg11.dtd">
<!-- Generated by Microsoft Visio, SVG Export AcademicEmail.svg Page-1 -->
<svg xmlns="http://www.w3.org/2000/svg" xmlns:xlink="http://www.w3.org/1999/xlink" xmlns:ev="http://www.w3.org/2001/xml-events"
		xmlns:v="http://schemas.microsoft.com/visio/2003/SVGExtensions/" width="7.26042in" height="5.13542in"
		viewBox="0 0 522.75 369.75" xml:space="preserve" color-interpolation-filters="sRGB" class="st2">
	<v:documentProperties v:langID="1033" v:metric="true" v:viewMarkup="false"/>

	<style type="text/css">
	<![CDATA[
		.st1 {fill:#ffffff;stroke:none;stroke-linecap:butt;stroke-width:6.375}
		.st2 {fill:none;fill-rule:evenodd;font-size:12px;overflow:visible;stroke-linecap:square;stroke-miterlimit:3}
	]]>
	</style>

	<g v:mID="0" v:index="1" v:groupContext="foregroundPage">
		<title>Page-1</title>
		<v:pageProperties v:drawingScale="0.0393701" v:pageScale="0.0393701" v:drawingUnits="24" v:shadowOffsetX="9"
				v:shadowOffsetY="-9"/>
		<g id="group1-1" transform="translate(6.375,-6.375)" v:mID="1" v:groupContext="group">
			<title>Sheet.1</title>
			<g id="group2-2" v:mID="2" v:groupContext="group">
				<v:userDefs>
					<v:ud v:nameU="msvThemeOrder" v:val="VT0(0):26"/>
				</v:userDefs>
				<title>Page-1</title>
				<g id="group3-3" v:mID="3" v:groupContext="group">
					<title>Sheet.3</title>
					<g id="shape4-4" v:mID="4" v:groupContext="shape">
						<title>Sheet.4</title>
						<path d="M0 12.75 L0 369.75 L510 369.75 L510 12.75 L0 12.75 ZM263.92 235.24 C258.82 240.34 251.17 240.34
									 246.07 235.24 L57.37 51 L453.26 51 L263.92 235.24 ZM162.56 189.34 L38.25 314.29 L38.25 67.57
									 L162.56 189.34 ZM181.05 207.19 L228.86 253.72 C236.51 260.74 246.07 264.56 255.64 264.56 C265.2
									 264.56 274.76 260.74 282.41 253.72 L330.22 207.19 L453.9 331.5 L56.74 331.5 L181.05 207.19 ZM347.44
									 189.34 L471.75 68.21 L471.75 313.65 L347.44 189.34 Z" class="st1"/>
					</g>
				</g>
			</g>
		</g>
	</g>
</svg>
