<?xml version="1.0" encoding="UTF-8" standalone="no"?>
<!DOCTYPE svg PUBLIC "-//W3C//DTD SVG 1.1//EN" "http://www.w3.org/Graphics/SVG/1.1/DTD/svg11.dtd">
<!-- Generated by Microsoft Visio, SVG Export Email.svg Page-1 -->
<svg xmlns="http://www.w3.org/2000/svg" xmlns:xlink="http://www.w3.org/1999/xlink" xmlns:ev="http://www.w3.org/2001/xml-events"
		xmlns:v="http://schemas.microsoft.com/visio/2003/SVGExtensions/" width="7.76042in" height="5.63542in"
		viewBox="0 0 558.75 405.75" xml:space="preserve" color-interpolation-filters="sRGB" class="st2">
	<v:documentProperties v:langID="1033" v:metric="true" v:viewMarkup="false">
		<v:userDefs>
			<v:ud v:nameU="msvSubprocessMaster" v:prompt="" v:val="VT4(Rectangle)"/>
			<v:ud v:nameU="msvNoAutoConnect" v:val="VT0(1):26"/>
		</v:userDefs>
	</v:documentProperties>

	<style type="text/css">
	<![CDATA[
		.st1 {fill:#000000;stroke:none;stroke-linecap:butt;stroke-width:6.375}
		.st2 {fill:none;fill-rule:evenodd;font-size:12px;overflow:visible;stroke-linecap:square;stroke-miterlimit:3}
	]]>
	</style>

	<g v:mID="0" v:index="1" v:groupContext="foregroundPage">
		<v:userDefs>
			<v:ud v:nameU="msvThemeOrder" v:val="VT0(0):26"/>
		</v:userDefs>
		<title>Page-1</title>
		<v:pageProperties v:drawingScale="0.0393701" v:pageScale="0.0393701" v:drawingUnits="24" v:shadowOffsetX="9"
				v:shadowOffsetY="-9"/>
		<g id="group489-1" transform="translate(24.375,-24.375)" v:mID="489" v:groupContext="group">
			<title>Sheet.489</title>
			<g id="shape490-2" v:mID="490" v:groupContext="shape">
				<title>Sheet.490</title>
				<path d="M0 48.75 L0 405.75 L510 405.75 L510 48.75 L0 48.75 ZM263.92 271.24 C258.82 276.34 251.17 276.34 246.07 271.24
							 L57.37 87 L453.26 87 L263.92 271.24 ZM162.56 225.34 L38.25 350.29 L38.25 103.57 L162.56 225.34 ZM181.05
							 243.19 L228.86 289.72 C236.51 296.74 246.07 300.56 255.64 300.56 C265.2 300.56 274.76 296.74 282.41
							 289.72 L330.22 243.19 L453.9 367.5 L56.74 367.5 L181.05 243.19 ZM347.44 225.34 L471.75 104.21 L471.75
							 349.65 L347.44 225.34 Z" class="st1"/>
			</g>
		</g>
	</g>
</svg>
