<?xml version="1.0" encoding="UTF-8" standalone="no"?>
<!DOCTYPE svg PUBLIC "-//W3C//DTD SVG 1.1//EN" "http://www.w3.org/Graphics/SVG/1.1/DTD/svg11.dtd">
<!-- Generated by Microsoft Visio, SVG Export BackToTop.svg Page-1 -->
<svg xmlns="http://www.w3.org/2000/svg" xmlns:xlink="http://www.w3.org/1999/xlink" xmlns:ev="http://www.w3.org/2001/xml-events"
		xmlns:v="http://schemas.microsoft.com/visio/2003/SVGExtensions/" width="3.65655in" height="3.63687in"
		viewBox="0 0 263.272 261.854" xml:space="preserve" color-interpolation-filters="sRGB" class="st3">
	<v:documentProperties v:langID="1033" v:metric="true" v:viewMarkup="false">
		<v:userDefs>
			<v:ud v:nameU="msvSubprocessMaster" v:prompt="" v:val="VT4(Rectangle)"/>
			<v:ud v:nameU="msvNoAutoConnect" v:val="VT0(1):26"/>
		</v:userDefs>
	</v:documentProperties>

	<style type="text/css">
	<![CDATA[
		.st1 {fill:#ff0047;stroke:#000000;stroke-width:0.75}
		.st2 {fill:#ffffff;stroke:#000000;stroke-linecap:butt;stroke-width:0.75}
		.st3 {fill:none;fill-rule:evenodd;font-size:12px;overflow:visible;stroke-linecap:square;stroke-miterlimit:3}
	]]>
	</style>

	<g v:mID="0" v:index="1" v:groupContext="foregroundPage">
		<v:userDefs>
			<v:ud v:nameU="msvThemeOrder" v:val="VT0(0):26"/>
		</v:userDefs>
		<title>Page-1</title>
		<v:pageProperties v:drawingScale="0.0393701" v:pageScale="0.0393701" v:drawingUnits="24" v:shadowOffsetX="8.50394"
				v:shadowOffsetY="-8.50394"/>
		<g id="shape1-1" v:mID="1" v:groupContext="shape" transform="translate(18.25,-18.25)">
			<title>Sheet.1</title>
			<ellipse cx="113.386" cy="149.177" rx="113.386" ry="112.677" class="st1"/>
		</g>
		<g id="group19-3" transform="translate(248.221,-55.2216) rotate(45)" v:mID="19" v:groupContext="group">
			<title>Sheet.19</title>
			<g id="shape20-4" v:mID="20" v:groupContext="shape">
				<title>Sheet.20</title>
				<path d="M97.01 246.43 L62.01 211.44 L92.85 200.34 C94.44 199.79 95.28 198.07 94.74 196.48 C94.43 195.6 93.74 194.9
							 92.85 194.6 L3.97 164.97 C3.65 164.86 3.32 164.81 2.99 164.81 C1.32 164.85 0 166.23 0.04 167.89 C0.04
							 168.2 0.1 168.51 0.2 168.8 L29.76 257.76 C30.32 259.34 32.05 260.17 33.63 259.61 C34.49 259.31 35.17
							 258.63 35.48 257.76 L46.6 226.88 L81.57 261.85 L97.01 246.43 Z" class="st2"/>
			</g>
		</g>
	</g>
</svg>
