<?xml version="1.0" encoding="UTF-8" standalone="no"?>
<!DOCTYPE svg PUBLIC "-//W3C//DTD SVG 1.1//EN" "http://www.w3.org/Graphics/SVG/1.1/DTD/svg11.dtd">
<!-- Generated by Microsoft Visio, SVG Export English Language.svg Page-1 -->
<svg xmlns="http://www.w3.org/2000/svg" xmlns:xlink="http://www.w3.org/1999/xlink" xmlns:ev="http://www.w3.org/2001/xml-events"
		xmlns:v="http://schemas.microsoft.com/visio/2003/SVGExtensions/" width="7.40625in" height="7.40625in"
		viewBox="0 0 533.25 533.25" xml:space="preserve" color-interpolation-filters="sRGB" class="st2">
	<v:documentProperties v:langID="1033" v:metric="true" v:viewMarkup="false">
		<v:userDefs>
			<v:ud v:nameU="msvSubprocessMaster" v:prompt="" v:val="VT4(Rectangle)"/>
			<v:ud v:nameU="msvNoAutoConnect" v:val="VT0(1):26"/>
		</v:userDefs>
	</v:documentProperties>

	<style type="text/css">
	<![CDATA[
		.st1 {fill:#ff0047;stroke:none;stroke-linecap:butt;stroke-width:6.375}
		.st2 {fill:none;fill-rule:evenodd;font-size:12px;overflow:visible;stroke-linecap:square;stroke-miterlimit:3}
	]]>
	</style>

	<g v:mID="0" v:index="1" v:groupContext="foregroundPage">
		<v:userDefs>
			<v:ud v:nameU="msvThemeOrder" v:val="VT0(0):26"/>
		</v:userDefs>
		<title>Page-1</title>
		<v:pageProperties v:drawingScale="0.0393701" v:pageScale="0.0393701" v:drawingUnits="24" v:shadowOffsetX="9"
				v:shadowOffsetY="-9"/>
		<g id="group1-1" transform="translate(24.375,-24.375)" v:mID="1" v:groupContext="group">
			<title>Sheet.1</title>
			<g id="group2-2" v:mID="2" v:groupContext="group">
				<title>Sheet.2</title>
				<g id="shape3-3" v:mID="3" v:groupContext="shape">
					<title>Sheet.3</title>
					<path d="M242.25 48.75 C108.38 48.75 0 157.12 0 291 C0 424.88 108.38 533.25 242.25 533.25 C376.12 533.25 484.5
								 424.88 484.5 291 C484.5 157.12 376.12 48.75 242.25 48.75 ZM25.5 291 C25.5 234.26 47.17 183.26 82.88
								 144.38 C88.61 147.56 94.35 152.66 95.63 157.12 L95.63 197.29 C95.63 199.84 96.26 203.03 98.17 204.94
								 L140.25 259.13 L143.44 255.94 C145.35 254.03 145.99 250.84 144.71 248.29 L137.06 235.54 C133.87
								 230.44 138.98 224.06 144.71 225.98 C146.62 226.61 147.9 227.89 148.54 229.16 L169.57 270.6 C172.12
								 275.06 175.95 278.89 180.41 280.16 L208.46 289.73 C210.37 290.36 211.65 291.64 212.29 292.91 L214.2
								 296.1 C216.11 300.56 220.57 303.11 225.67 303.11 L233.32 303.11 C235.24 303.11 237.15 304.39 238.42
								 305.66 L246.71 317.78 C248.62 320.33 251.17 322.24 254.36 322.88 L267.75 326.06 C271.57 326.7 273.49
								 331.16 272.21 334.35 C272.21 334.35 262.01 344.55 262.01 359.21 C262.01 401.29 300.26 413.4 300.26
								 422.96 C300.26 449.1 296.44 485.44 294.53 499.46 C277.95 503.29 260.74 505.84 242.89 505.84 C123.04
								 507.75 25.5 410.21 25.5 291 ZM323.85 491.81 C337.87 479.7 361.46 459.3 369.75 450.37 C380.59 438.26
								 382.5 418.5 382.5 418.5 C382.5 418.5 427.12 406.39 427.12 373.88 C427.12 351.56 382.5 342 382.5
								 342 C374.85 317.14 337.24 303.75 306 303.75 C298.99 303.75 274.12 316.5 274.12 316.5 L261.37 310.12
								 L261.37 291 C261.37 287.18 258.82 284.63 255 284.63 L242.25 284.63 L242.25 265.5 C242.25 261.67
								 239.7 259.13 235.88 259.13 L229.5 259.13 L222.49 263.59 C216.11 268.05 207.19 265.5 204 258.49 C204
								 258.49 197.63 249.56 197.63 245.74 C197.63 218.32 229.5 220.24 229.5 220.24 L243.52 220.24 C246.71
								 220.24 249.26 222.15 249.9 225.34 L253.72 241.28 C254.36 243.83 256.91 246.38 260.1 246.38 L262.65
								 246.38 C265.84 246.38 268.39 244.46 269.02 241.28 L273.49 217.69 C274.12 215.78 274.76 213.86 276.04
								 211.95 L293.89 189.64 C297.71 185.17 302.81 182.63 308.55 182.63 L325.12 182.63 C328.95 182.63 331.5
								 180.07 331.5 176.25 L331.5 169.87 L329.59 167.96 C325.76 164.14 328.31 157.12 334.05 157.12 L337.87
								 157.12 C341.7 157.12 344.25 159.68 344.25 163.5 C344.25 167.33 346.8 169.87 350.62 169.87 L357 169.87
								 L360.82 153.3 C362.1 147.56 359.55 142.46 355.09 139.28 L300.9 106.76 C300.26 106.12 298.99 106.12
								 297.71 106.12 L286.87 106.12 C279.86 106.12 274.12 111.86 274.12 118.87 L274.12 125.25 C274.12 129.08
								 271.57 131.63 267.75 131.63 L261.37 131.63 L255 125.25 L235.88 125.25 C232.05 125.25 229.5 122.7
								 229.5 118.87 L229.5 102.94 C229.5 101.03 230.14 99.11 232.05 97.84 L272.85 80.62 L279.22 91.46 C280.5
								 92.74 281.78 93.38 283.69 93.38 L299.62 93.38 C303.45 93.38 306 90.83 306 87 L306 83.81 C394.61
								 111.23 459 193.46 459 291 C459 381.52 402.9 459.3 323.85 491.81 Z" class="st1"/>
				</g>
				<g id="shape4-5" v:mID="4" v:groupContext="shape" transform="translate(258.825,-256.912)">
					<title>Sheet.4</title>
					<path d="M61.84 521.14 L31.24 510.94 C28.69 510.3 26.78 510.3 24.23 510.94 L2.55 516.04 C0.64 517.31 0 519.86
								 2.55 522.41 L31.88 522.41 C33.79 522.41 35.06 522.41 36.34 523.05 L58.65 531.97 C62.48 533.25 66.3
								 530.7 66.3 526.87 C66.3 524.32 64.39 521.77 61.84 521.14 Z" class="st1"/>
				</g>
			</g>
		</g>
	</g>
</svg>
