<?xml version="1.0" encoding="UTF-8" standalone="no"?>
<!DOCTYPE svg PUBLIC "-//W3C//DTD SVG 1.1//EN" "http://www.w3.org/Graphics/SVG/1.1/DTD/svg11.dtd">
<!-- Generated by Microsoft Visio, SVG Export Experimental Techniques.svg Page-1 -->
<svg xmlns="http://www.w3.org/2000/svg" xmlns:xlink="http://www.w3.org/1999/xlink" xmlns:ev="http://www.w3.org/2001/xml-events"
		xmlns:v="http://schemas.microsoft.com/visio/2003/SVGExtensions/" width="4.21638in" height="8.46875in"
		viewBox="0 0 303.579 609.75" xml:space="preserve" color-interpolation-filters="sRGB" class="st2">
	<v:documentProperties v:langID="1033" v:metric="true" v:viewMarkup="false">
		<v:userDefs>
			<v:ud v:nameU="msvSubprocessMaster" v:prompt="" v:val="VT4(Rectangle)"/>
			<v:ud v:nameU="msvNoAutoConnect" v:val="VT0(1):26"/>
		</v:userDefs>
	</v:documentProperties>

	<style type="text/css">
	<![CDATA[
		.st1 {fill:#ff0047;stroke:none;stroke-linecap:butt;stroke-width:6.375}
		.st2 {fill:none;fill-rule:evenodd;font-size:12px;overflow:visible;stroke-linecap:square;stroke-miterlimit:3}
	]]>
	</style>

	<g v:mID="0" v:index="1" v:groupContext="foregroundPage">
		<v:userDefs>
			<v:ud v:nameU="msvThemeOrder" v:val="VT0(0):26"/>
		</v:userDefs>
		<title>Page-1</title>
		<v:pageProperties v:drawingScale="0.0393701" v:pageScale="0.0393701" v:drawingUnits="24" v:shadowOffsetX="9"
				v:shadowOffsetY="-9"/>
		<g id="group1-1" transform="translate(22.3771,-24.375)" v:mID="1" v:groupContext="group">
			<title>Sheet.1</title>
			<g id="shape2-2" v:mID="2" v:groupContext="shape" transform="translate(123.037,-522.75)">
				<title>Sheet.2</title>
				<ellipse cx="19.125" cy="590.625" rx="19.125" ry="19.125" class="st1"/>
			</g>
			<g id="shape3-4" v:mID="3" v:groupContext="shape" transform="translate(154.913,-465.375)">
				<title>Sheet.3</title>
				<ellipse cx="19.125" cy="590.625" rx="19.125" ry="19.125" class="st1"/>
			</g>
			<g id="shape4-6" v:mID="4" v:groupContext="shape" transform="translate(84.7875,-478.125)">
				<title>Sheet.4</title>
				<ellipse cx="19.125" cy="590.625" rx="19.125" ry="19.125" class="st1"/>
			</g>
			<g id="shape5-8" v:mID="5" v:groupContext="shape" transform="translate(91.1625,-401.625)">
				<title>Sheet.5</title>
				<ellipse cx="25.5" cy="584.25" rx="25.5" ry="25.5" class="st1"/>
			</g>
			<g id="shape6-10" v:mID="6" v:groupContext="shape">
				<title>Sheet.6</title>
				<path d="M253.72 556.2 L180.41 390.45 L180.41 278.25 C180.41 255.3 198.9 245.74 199.54 245.1 C205.91 241.91 208.46
							 234.26 205.27 227.89 C202.73 223.42 198.26 220.87 193.16 220.87 L65.66 220.87 C60.56 220.87 56.1 223.42
							 53.55 227.89 C50.36 234.26 52.91 241.91 59.29 245.1 C59.29 245.1 78.41 255.3 78.41 278.25 L78.41 390.45
							 L5.1 556.2 C0 568.31 1.27 581.7 8.29 592.54 C15.3 603.37 27.41 609.75 40.16 609.75 L218.66 609.75 C231.41
							 609.75 243.53 603.37 250.54 592.54 C257.55 581.7 258.82 568.31 253.72 556.2 ZM154.91 278.25 L154.91
							 303.75 L103.91 303.75 L103.91 278.25 C103.91 264.86 100.09 254.66 95.63 246.37 L163.84 246.37 C158.74
							 254.66 154.91 264.86 154.91 278.25 Z" class="st1"/>
			</g>
		</g>
	</g>
</svg>
