<?xml version="1.0" encoding="UTF-8" standalone="no"?>
<!DOCTYPE svg PUBLIC "-//W3C//DTD SVG 1.1//EN" "http://www.w3.org/Graphics/SVG/1.1/DTD/svg11.dtd">
<!-- Generated by Microsoft Visio, SVG Export Honours and Awards.svg Page-1 -->
<svg xmlns="http://www.w3.org/2000/svg" xmlns:xlink="http://www.w3.org/1999/xlink" xmlns:ev="http://www.w3.org/2001/xml-events"
		xmlns:v="http://schemas.microsoft.com/visio/2003/SVGExtensions/" width="7.58333in" height="7.66302in"
		viewBox="0 0 546 551.737" xml:space="preserve" color-interpolation-filters="sRGB" class="st2">
	<v:documentProperties v:langID="1033" v:metric="true" v:viewMarkup="false">
		<v:userDefs>
			<v:ud v:nameU="msvSubprocessMaster" v:prompt="" v:val="VT4(Rectangle)"/>
			<v:ud v:nameU="msvNoAutoConnect" v:val="VT0(1):26"/>
		</v:userDefs>
	</v:documentProperties>

	<style type="text/css">
	<![CDATA[
		.st1 {fill:#ff0047;stroke:none;stroke-linecap:butt;stroke-width:6.375}
		.st2 {fill:none;fill-rule:evenodd;font-size:12px;overflow:visible;stroke-linecap:square;stroke-miterlimit:3}
	]]>
	</style>

	<g v:mID="0" v:index="1" v:groupContext="foregroundPage">
		<v:userDefs>
			<v:ud v:nameU="msvThemeOrder" v:val="VT0(0):26"/>
		</v:userDefs>
		<title>Page-1</title>
		<v:pageProperties v:drawingScale="0.0393701" v:pageScale="0.0393701" v:drawingUnits="24" v:shadowOffsetX="9"
				v:shadowOffsetY="-9"/>
		<g id="group1-1" transform="translate(24.375,-24.375)" v:mID="1" v:groupContext="group">
			<title>Sheet.1</title>
			<g id="group2-2" v:mID="2" v:groupContext="group">
				<title>Sheet.2</title>
				<g id="shape3-3" v:mID="3" v:groupContext="shape" transform="translate(6.375,-117.938)">
					<title>Sheet.3</title>
					<path d="M184.87 535.16 C184.87 535.16 151.09 496.27 100.09 482.89 C49.09 469.5 0 486.07 0 486.07 C0 486.07 33.79
								 524.96 84.79 538.35 C135.79 551.74 184.87 535.16 184.87 535.16 Z" class="st1"/>
				</g>
				<g id="shape4-5" v:mID="4" v:groupContext="shape" transform="translate(2.04636E-12,-192.525)">
					<title>Sheet.4</title>
					<path d="M135.15 551.74 C135.15 551.74 124.95 501.37 87.97 463.76 C50.36 426.79 0 416.59 0 416.59 C0 416.59 10.2
								 466.95 47.17 504.56 C84.79 541.54 135.15 551.74 135.15 551.74 Z" class="st1"/>
				</g>
				<g id="shape5-7" v:mID="5" v:groupContext="shape" transform="translate(51.6375,-269.025)">
					<title>Sheet.5</title>
					<path d="M65.66 551.74 C65.66 551.74 82.24 502.65 68.85 451.65 C55.46 400.65 16.58 366.86 16.58 366.86 C16.58
								 366.86 0 415.95 13.39 466.95 C26.78 517.95 65.66 551.74 65.66 551.74 Z" class="st1"/>
				</g>
				<g id="shape6-9" v:mID="6" v:groupContext="shape" transform="translate(128.138,-318.113)">
					<title>Sheet.6</title>
					<path d="M68.85 466.95 C82.24 415.95 65.66 366.86 65.66 366.86 C65.66 366.86 26.78 400.65 13.39 451.65 C0 502.65
								 16.58 551.74 16.58 551.74 C16.58 551.74 54.83 517.95 68.85 466.95 Z" class="st1"/>
				</g>
				<g id="shape7-11" v:mID="7" v:groupContext="shape" transform="translate(306,-117.938)">
					<title>Sheet.7</title>
					<path d="M84.79 482.89 C33.79 496.27 0 535.16 0 535.16 C0 535.16 49.09 551.74 100.09 538.35 C151.09 524.96 184.87
								 486.07 184.87 486.07 C184.87 486.07 135.79 468.86 84.79 482.89 Z" class="st1"/>
				</g>
				<g id="shape8-13" v:mID="8" v:groupContext="shape" transform="translate(362.1,-192.525)">
					<title>Sheet.8</title>
					<path d="M135.15 416.59 C135.15 416.59 84.79 426.79 47.17 463.76 C9.56 501.37 0 551.74 0 551.74 C0 551.74 50.36
								 541.54 87.97 504.56 C124.95 466.95 135.15 416.59 135.15 416.59 Z" class="st1"/>
				</g>
				<g id="shape9-15" v:mID="9" v:groupContext="shape" transform="translate(364.013,-269.025)">
					<title>Sheet.9</title>
					<path d="M68.85 466.95 C82.24 415.95 65.66 366.86 65.66 366.86 C65.66 366.86 26.78 400.65 13.39 451.65 C0 502.65
								 16.58 551.74 16.58 551.74 C16.58 551.74 54.83 517.95 68.85 466.95 Z" class="st1"/>
				</g>
				<g id="shape10-17" v:mID="10" v:groupContext="shape" transform="translate(287.513,-318.113)">
					<title>Sheet.10</title>
					<path d="M65.66 551.74 C65.66 551.74 82.24 502.65 68.85 451.65 C55.46 400.65 16.58 366.86 16.58 366.86 C16.58
								 366.86 0 415.95 13.39 466.95 C26.78 517.95 65.66 551.74 65.66 551.74 Z" class="st1"/>
				</g>
				<g id="shape11-19" v:mID="11" v:groupContext="shape" transform="translate(73.3125,9.09495E-13)">
					<title>Sheet.11</title>
					<path d="M265.84 438.26 C228.23 428.06 191.89 434.44 175.31 438.26 C158.74 434.44 122.4 428.06 84.79 437.63 C33.79
								 451.01 0 489.9 0 489.9 C0 489.9 49.09 506.48 100.09 493.09 C108.38 490.54 116.66 487.99 124.31 484.16
								 C114.75 497.55 105.19 508.39 85.43 516.68 L100.09 551.74 C134.51 537.07 149.18 515.4 162.56 496.28
								 C167.03 489.9 170.85 484.16 175.95 478.43 C180.41 484.16 184.88 489.9 189.34 496.28 C202.09 515.4
								 216.75 537.07 251.81 551.74 L266.48 516.68 C246.71 508.39 237.15 497.55 227.59 484.16 C235.24 487.35
								 242.89 490.54 251.81 493.09 C302.81 506.48 351.9 489.9 351.9 489.9 C351.9 489.9 316.84 451.65 265.84
								 438.26 Z" class="st1"/>
				</g>
			</g>
		</g>
	</g>
</svg>
