<svg version="1.2" baseProfile="tiny-ps" xmlns="http://www.w3.org/2000/svg" viewBox="0 0 374 375" width="374" height="375">
	<title>Institiute-svg</title>
	<style>
		tspan { white-space:pre }
		.shp0 { fill: #ffffff } 
	</style>
	<g id="Layer">
		<g id="group11-1">
			<g id="group12-2">
				<g id="group13-3">
					<g id="shape14-4">
						<path id="Layer" fill-rule="evenodd" class="shp0" d="M165.9 372.36C133.96 368.71 100.29 355.22 74.94 335.93C4.52 282.36 -18.83 188.14 18.52 108.33C58.31 23.36 156.56 -18.98 244.91 10.77C301.91 29.97 344.19 72.26 363.32 129.19C384.52 192.29 369.62 262.48 324.44 312.32C293.93 345.98 252 367.36 206.49 372.45C197.06 373.49 175.43 373.45 165.9 372.36ZM211.84 363.88C289.9 353.13 352.35 290.5 363.41 211.85C365.12 199.74 365.11 174.9 363.4 162.79C352.28 84.11 290.67 22.34 211.75 10.75C198.81 8.85 174.7 8.86 161.77 10.77C83.08 22.36 21.76 83.61 10.25 162.12C8.41 174.65 8.42 200.21 10.26 212.73C18.95 271.68 56.95 323.24 110.21 348.35C142.39 363.52 176.55 368.74 211.84 363.88ZM169.03 358.55C167.06 358.35 164.16 357.97 162.56 357.71L159.67 357.23L159.66 334.33L154.08 332.91C151.02 332.12 145.84 330.71 142.59 329.77L136.67 328.06L131.1 337.78C128.05 343.13 124.99 347.5 124.3 347.5C119.94 347.5 77.75 322.84 78.8 320.89C79.86 318.96 87.01 306.48 88.37 304.2L90.01 301.47L81.35 292.88L72.67 284.29L67.76 287.19C65.06 288.79 60.59 291.38 57.82 292.96L52.79 295.82L45.18 284.43C37.95 273.64 26.73 252.68 26.73 250C26.73 249.31 31.1 246.23 36.44 243.17L46.16 237.61L44.45 231.69C43.5 228.44 42.09 223.26 41.31 220.2L39.88 214.62L16.97 214.63L16.26 211.28C15.34 206.94 15.33 167.91 16.25 163.56L16.96 160.21L39.87 160.2L41.89 151.95C42.99 147.42 44.41 142.25 45.03 140.46L46.15 137.22L36.42 131.66C31.07 128.6 26.69 125.53 26.69 124.84C26.69 122.16 37.9 101.19 45.11 90.39L52.72 79L57.75 81.86C60.52 83.44 65 86.03 67.7 87.62L72.61 90.52L81.26 81.91L89.92 73.32L88.29 70.59C86.92 68.32 79.76 55.84 78.71 53.9C77.65 51.96 119.82 27.27 124.19 27.27C124.88 27.27 127.94 31.64 131 36.99L136.56 46.71L142.48 44.98C145.74 44.04 150.91 42.63 153.98 41.85L159.55 40.42L159.54 17.54L162.89 16.83C167.24 15.89 206.26 15.88 210.61 16.81L213.96 17.52L213.97 40.32L225.51 43.44L237.04 46.55L242.57 36.89C245.6 31.59 248.66 27.24 249.34 27.24C253.7 27.24 295.88 51.91 294.83 53.85C293.78 55.79 286.62 68.27 285.26 70.55L283.62 73.27L292.28 81.87L300.95 90.46L305.86 87.55C308.55 85.96 313.03 83.37 315.8 81.8L320.83 78.93L328.46 90.32C335.67 101.12 346.9 122.07 346.9 124.76C346.9 125.45 342.56 128.49 337.25 131.54L327.59 137.06L330.71 148.6L333.84 160.13L356.65 160.12L357.36 163.47C357.75 165.31 358.07 176.05 358.08 187.33C358.08 198.62 357.76 209.35 357.37 211.19L356.66 214.54L333.86 214.55L330.75 226.09L327.63 237.62L337.28 243.15C342.59 246.18 346.94 249.23 346.94 249.92C346.95 252.6 335.73 273.57 328.52 284.36L320.91 295.76L315.87 292.9C313.1 291.32 308.63 288.73 305.93 287.14L301.02 284.24L292.36 292.85L283.7 301.44L285.33 304.17C286.7 306.44 293.87 318.92 294.92 320.86C295.98 322.8 253.81 347.49 249.43 347.49C248.75 347.49 245.7 343.15 242.66 337.84L237.14 328.19L225.61 331.32L214.07 334.43L214.07 345.75C214.08 356.73 214.02 357.1 212.07 357.67C209.73 358.36 174.29 359.08 169.03 358.55ZM192.43 342.45L197.11 341.89L197.11 319.95L201.35 319.43C209.24 318.48 228.73 313.43 236.29 310.38C240.43 308.72 244.01 307.56 244.26 307.81C244.51 308.06 247.16 312.45 250.16 317.58L255.6 326.9L263.16 322.49C267.31 320.05 271.27 317.71 271.96 317.27C272.96 316.63 272.1 314.55 267.64 306.77L262.07 297.08L265.02 294.84C275.21 287.14 286.54 275.79 294.33 265.5L296.56 262.56L306.2 268.09C311.49 271.13 315.94 273.47 316.07 273.29C317.76 271.03 320.53 266.52 323.16 261.77L326.4 255.91L316.59 250.34C311.21 247.27 306.8 244.62 306.8 244.46C306.8 244.3 307.99 241.39 309.43 237.98C312.45 230.89 318.38 208.72 318.39 204.47C318.42 197.49 318.25 197.6 330.4 197.6L341.32 197.6L341.92 192.53C342.24 189.74 342.24 185.13 341.91 182.27L341.33 177.08L330.4 177.08C318.24 177.08 318.41 177.18 318.38 170.22C318.36 165.97 312.42 143.8 309.4 136.71C307.95 133.31 306.77 130.39 306.77 130.23C306.77 130.08 311.18 127.42 316.56 124.35L326.35 118.77L323.11 112.91C320.48 108.16 317.71 103.66 316.02 101.39C315.89 101.22 311.48 103.54 306.22 106.57C300.96 109.58 296.4 111.74 296.07 111.35C295.75 110.97 292.85 107.44 289.63 103.52C282.83 95.24 274.57 87.19 267.28 81.74C264.46 79.62 262.15 77.77 262.15 77.64C262.15 77.5 264.62 73.08 267.64 67.82C272.04 60.14 272.88 58.09 271.88 57.45C271.19 57.01 267.23 54.68 263.07 52.25L255.51 47.84L250.08 57.16C247.09 62.28 244.41 66.72 244.12 67.01C243.83 67.3 240.79 66.31 237.37 64.81C231.05 62.06 209 56.25 201.27 55.34L197.03 54.83L197.02 32.86L191.96 32.26C189.17 31.94 184.56 31.93 181.7 32.26L176.51 32.84L176.52 54.84L173.62 55.28C172.03 55.52 168.75 55.99 166.34 56.3C161.1 56.97 140.51 62.8 133.99 65.47L129.36 67.36L123.68 57.6L118 47.86L110.46 52.27C106.32 54.69 102.37 57.05 101.68 57.49C100.68 58.13 101.52 60.19 105.95 67.91C108.99 73.19 111.16 77.77 110.77 78.08C96.66 89.47 91.73 94.15 83.98 103.55C80.74 107.47 77.83 111.01 77.51 111.4C77.18 111.78 72.62 109.63 67.36 106.61C62.1 103.59 57.69 101.27 57.56 101.45C55.87 103.71 53.1 108.22 50.47 112.97L47.24 118.83L57.04 124.4C62.42 127.47 66.83 130.08 66.83 130.19C66.83 130.3 65.44 133.79 63.73 137.93C60.72 145.27 55.83 164.35 54.77 172.9L54.24 177.13L32.28 177.14L31.69 182.34C31.38 185.19 31.38 189.81 31.71 192.6L32.3 197.66L54.28 197.66L54.7 200.55C56.78 214.98 60.8 230.56 64.74 239.45C65.91 242.09 66.86 244.37 66.86 244.52C66.86 244.67 62.45 247.31 57.08 250.39L47.28 255.97L50.52 261.83C53.15 266.58 55.92 271.08 57.61 273.35C57.74 273.52 62.15 271.2 67.41 268.17C72.67 265.16 77.23 263 77.56 263.39C77.88 263.77 80.77 267.3 84 271.22C90.8 279.5 99.06 287.55 106.35 293C109.17 295.12 111.48 296.97 111.48 297.1C111.48 297.24 109.01 301.66 105.99 306.92C101.6 314.6 100.76 316.65 101.76 317.29C102.45 317.73 106.4 320.06 110.55 322.48L118.09 326.89L129.42 307.41L134.05 309.29C143.89 313.26 161.73 317.96 172.36 319.36L176.6 319.92L176.6 342L179.95 342.35C185.98 343.01 187.69 343.02 192.43 342.45ZM184.25 309.6C182.73 307.61 180.66 306.18 178.44 305.58C176.54 305.07 174.77 304.09 174.5 303.4C173.95 301.95 185.86 284.74 187.7 284.32C189.02 284.03 202.46 301.31 202.46 303.32C202.46 304.02 200.91 304.76 198.66 305.15C195.86 305.61 194.03 306.69 191.66 309.24C189.9 311.14 188.04 312.69 187.53 312.69C187.03 312.7 185.55 311.3 184.25 309.6ZM124.64 296.02C116.72 295.58 116.12 294.58 118.19 285.21C120.12 276.47 123.06 270.7 128.05 265.85C135.83 258.29 144.77 255.68 163.03 255.63C174.26 255.61 175.68 256.22 175.68 261.06C175.68 268.08 175.63 268.1 159.88 268.11C147.55 268.11 145.47 268.33 142.07 269.98C139.53 271.2 138.23 272.42 138.23 273.55C138.23 275.17 139.1 275.25 155.88 275.25C168.43 275.24 173.85 275.55 174.62 276.31C175.9 277.6 176.08 292.88 174.82 294.87C174.11 295.99 170.55 296.22 152.31 296.29C140.4 296.32 127.95 296.21 124.64 296.02ZM211.41 295.96C204.64 295.78 200.95 295.31 200.49 294.59C200.11 294 199.8 289.83 199.79 285.33C199.76 273.53 198.83 274.03 220.24 274.44C235.19 274.72 237.68 274.58 237.68 273.45C237.68 272.72 235.87 271.12 233.66 269.88C229.85 267.75 228.93 267.63 215.93 267.64C203.03 267.64 202.14 267.53 200.98 265.79C200.12 264.5 199.93 262.65 200.33 259.69L200.91 255.44L217.06 255.76C235.69 256.13 238.39 256.91 246.08 264.09C253.65 271.18 258.05 280.97 257.57 289.64C257.31 294.18 257.17 294.44 254.18 295.46C251.17 296.49 236.48 296.66 211.41 295.96ZM183.1 272.65C179.45 270.36 178.36 268.25 178.36 263.43C178.36 254.14 190.28 250.74 195.7 258.47C196.47 259.57 197.09 262.17 197.09 264.27C197.09 271.85 189.3 276.53 183.1 272.65ZM118.6 256.76C115.25 250.42 107.31 242.98 99.99 239.32C92.12 235.4 85.19 233.9 77.41 234.45C73.97 234.69 71.04 234.5 70.52 233.98C69.3 232.75 72.33 226.94 75.53 224.4C77.79 222.6 78.69 222.47 86.03 222.92C100.64 223.81 108.66 227.72 120.98 239.97C131.29 250.21 131.78 251.7 126.55 257.04C124.43 259.21 122.27 260.98 121.75 260.98C121.24 260.98 119.82 259.08 118.6 256.76ZM248.77 255.74C244.93 252.34 244.92 252.31 246.16 249.28C247.93 244.99 261.65 231.47 267.7 228.06C277.95 222.28 292.71 219.17 298.51 221.57C301.1 222.64 306.61 231.08 305.47 232.22C305.14 232.55 300.98 232.87 296.24 232.93C280.43 233.13 269.02 239.36 258.83 253.36C255.64 257.74 254.29 259.12 253.18 259.15C252.88 259.15 250.89 257.62 248.77 255.74ZM136.29 248.46C135.48 247.99 133.63 245.49 132.17 242.92C130.72 240.34 126.5 235.35 122.78 231.83C112.42 221.99 101.02 217.18 87.45 216.94C83.77 216.87 81.59 216.44 81.34 215.73C81.14 215.12 83.02 212.63 85.53 210.2C94.11 201.83 110.64 195.8 120.05 197.59C138.83 201.15 156.72 217.45 165.47 238.94C168.94 247.49 168.36 249.36 162.18 249.36C157.98 249.37 156.33 247.95 154.33 242.62C149.1 228.64 131.56 210.33 124.21 211.17C122.22 211.41 121.71 211.91 121.71 213.68C121.71 215.42 122.93 216.69 127.3 219.54C134.83 224.46 136.66 226.3 142.29 234.64C147.48 242.31 149.16 247.21 147.05 248.55C145.39 249.61 138.16 249.54 136.29 248.46ZM174.79 248.21L172.56 247.08L172.86 207.86C173.19 165.39 172.63 155.64 168.98 140.55C166.35 129.61 165.3 127 158.96 115.42C156.36 110.67 154.24 106.36 154.24 105.82C154.24 102.45 165.22 109.2 171.29 116.31C174.88 120.48 179.13 128.75 181.85 136.82C183.61 142.07 183.68 144.13 183.7 194.9C183.71 246.01 183.66 247.55 181.98 248.45C179.71 249.66 177.52 249.59 174.79 248.21ZM192.41 248.41C190.96 247.57 190.89 244.19 191.28 194.69C191.67 144.66 191.79 141.52 193.54 135.19C194.56 131.51 196.64 126.18 198.15 123.34C201.19 117.62 209.46 109.41 215.04 106.55C221.49 103.27 221.47 104.62 214.92 117.59C210.12 127.1 208.26 132.02 205.87 141.51L202.88 153.47L202.62 200.29C202.38 242.54 202.21 247.24 200.88 248.24C199.13 249.58 194.58 249.66 192.41 248.41ZM210.91 248.48C208.45 248.02 208.23 247.68 208.3 244.41C208.43 236.83 220.58 216.89 229.92 208.96C235.89 203.89 243.43 199.85 250.18 198.09C262.92 194.76 274.09 197.64 287.89 207.8C292.26 211.02 293.46 212.39 293.24 213.91C292.98 215.75 292.57 215.86 287.11 215.58C272.29 214.81 252.72 226.24 244.17 240.64C239.89 247.84 236.64 249.86 230.86 248.88C228.08 248.41 227.4 247.91 227.4 246.35C227.4 242.2 234.07 232.83 244.17 222.76C252.46 214.47 254.08 212.44 253.21 211.38C251.66 209.51 249.79 209.8 244.79 212.71C235.86 217.92 226.34 229.55 222.02 240.54C219.06 248.07 216.91 249.6 210.91 248.48ZM161.09 217.47C159.91 215.62 158.28 213.55 157.44 212.85C153.7 209.76 153.31 207.35 153.4 188.06C153.44 177.87 153.19 168.82 152.86 167.93C152.44 166.84 151.5 166.41 149.95 166.6C146.67 167 146.02 170.3 146.63 183.39C147.19 195.12 146.68 200.33 144.99 200.33C144.43 200.33 142.37 199.46 140.42 198.41C138.46 197.36 135.06 195.58 132.85 194.45L128.84 192.4L128.83 166.71C128.82 141.78 128.76 140.89 126.81 137.19C123.47 130.83 124.28 129.78 132.58 129.74C146.02 129.68 156.36 135.92 162.28 147.67C164.95 152.93 165.74 163.54 165.81 194.22C165.87 222.77 165.53 224.49 161.09 217.47ZM209.55 219.26C209.54 218.88 209.44 205.14 209.35 188.7C209.15 155.43 209.62 151.54 214.96 143.37C217.86 138.94 224.79 133.22 230.06 130.89C234.54 128.92 248.27 128.91 250.24 130.88C251.59 132.23 251.53 132.56 249.58 135.31C247.48 138.24 247.45 138.69 247.02 164.16C246.78 178.39 246.23 190.57 245.81 191.24C245.38 191.9 243.63 193.04 241.91 193.75C240.19 194.47 237.2 196.06 235.26 197.28C228.94 201.27 228.81 200.99 228.29 183.43C227.9 169.94 227.64 167.8 226.28 166.95C225.15 166.23 224.3 166.23 223.17 166.95C221.78 167.82 221.55 170.15 221.17 187.91L220.73 207.89L216.28 213.91C212.37 219.18 209.63 221.37 209.55 219.26ZM111.04 189.99C109.82 188.77 109.66 185.98 109.85 169.7L110.09 150.83L112.57 150.54C116.18 150.13 119.97 154.49 121.23 160.52C122.52 166.77 121.7 189.68 120.14 190.67C118.21 191.9 112.53 191.48 111.04 189.99ZM254.83 189.51C253.44 188.7 253.27 186.97 253.26 174.15C253.26 166.21 253.7 158.15 254.22 156.24C255.58 151.32 258.79 148.37 262.4 148.72L265.28 148.99L264.99 168.62C264.74 185.29 264.48 188.41 263.27 189.35C261.56 190.69 257 190.77 254.83 189.51ZM84.82 140.29C82.21 137.52 82.36 137 85.82 137C89.23 137 93.1 133.4 98.36 125.32C101.53 120.44 101.57 120.25 100.2 117.52C98.28 113.67 98.81 109.87 101.31 109.52C102.58 109.33 103.61 109.91 104.27 111.13C105.53 113.48 108.49 113.19 110.24 110.53C111.42 108.75 111.33 108.52 109.02 107.41C105.37 105.66 105.16 103.1 108.66 103.1C112.39 103.09 114.98 105.85 114.98 109.84C114.98 112.41 114.14 113.89 110.63 117.65C108.26 120.19 104 126.03 101.18 130.6C94.26 141.86 89.15 144.89 84.82 140.29ZM104.28 115.59C104.28 115.1 103.88 114.7 103.39 114.7C102.89 114.7 102.49 115.1 102.49 115.59C102.49 116.08 102.89 116.48 103.39 116.48C103.88 116.48 104.28 116.08 104.28 115.59ZM275.89 141.45C272.7 140.12 270.09 136.14 271.14 134.18C272.41 131.81 273.92 132.07 276.89 135.16C280.54 138.97 281.23 138.56 280.58 133.02C280.11 129.01 280.26 128.11 281.5 127.63C284.29 126.57 285.88 129.59 285.48 135.15C285.14 139.91 280.13 143.19 275.89 141.45ZM186.81 135.2C186.51 134.72 185.48 132.04 184.52 129.26C181.89 121.62 178.91 117.13 171.93 110.27C165.02 103.48 164.46 101.31 169.61 101.31C172.97 101.31 175 102.54 181.73 108.6C184.34 110.96 186.87 112.89 187.34 112.89C187.82 112.89 190.08 110.85 192.39 108.34C197.27 103.05 200.26 101.3 204.41 101.3C210.31 101.29 210.02 102.93 203 109.41C195.98 115.88 192.01 122.22 189.49 130.96C187.95 136.28 187.7 136.66 186.81 135.2ZM107.3 130.59C106.95 130 107.15 129.36 107.76 129.16C108.36 128.96 109.24 127.8 109.69 126.6C110.15 125.4 110.93 124.66 111.42 124.96C112.52 125.64 112.61 128.08 111.53 128.08C111.1 128.08 110.53 128.89 110.27 129.87C109.75 131.86 108.31 132.21 107.3 130.59ZM268.43 130.49C268.46 128.55 279.16 117.32 280.97 117.32C283.32 117.32 283.15 117.88 279.36 122.58C273.07 130.36 268.38 133.75 268.43 130.49ZM262.38 123.87C261.76 123.62 260.1 121.74 258.69 119.71C255.39 114.95 248.96 108.41 247.57 108.41C246.99 108.41 245.19 107.21 243.57 105.74C241.96 104.27 239.72 103.08 238.59 103.08C235.52 103.08 231.83 99.79 231.83 97.04C231.83 93.51 240.65 78.09 242.66 78.09C244.91 78.09 244.78 78.64 241.06 84.78C236.52 92.32 236.03 94.47 238.21 97.25C239.81 99.28 242.53 100.35 242.53 98.95C242.53 98.64 241.83 96.42 240.97 94.01C239.07 88.66 239.97 87.64 246.1 88.29C248.31 88.53 252.85 88.97 256.18 89.28C261.46 89.76 262.1 90.01 261.13 91.18C260.26 92.23 258.4 92.46 252.6 92.22C246.29 91.96 245.27 92.11 245.73 93.25C246.04 93.99 246.54 96.6 246.86 99.05C247.38 103.09 247.74 103.66 250.78 105.15C252.62 106.04 254.13 107.16 254.13 107.62C254.13 108.08 255.13 108.84 256.36 109.31C257.58 109.78 258.58 110.77 258.58 111.52C258.58 112.27 259.18 112.87 259.91 112.87C260.64 112.87 262.26 114.48 263.49 116.44C266.02 120.43 267.51 121.01 267.52 118C267.54 115.14 268.8 113.54 270.73 113.91C273.49 114.44 273.23 117.75 270.15 121.26C267.5 124.28 265.26 125.03 262.38 123.87ZM88.57 119.65C87.94 117.99 88.85 116.48 90.51 116.48C91.28 116.48 91.79 117.37 91.8 118.71C91.8 121.17 89.42 121.85 88.57 119.65ZM117.66 119.58C117.66 119.32 119.06 117.07 120.77 114.57C124.79 108.73 124.78 106.94 120.72 105.24C118.28 104.22 117.61 103.46 117.82 102.01C118.06 100.39 118.72 100.09 122.12 100.03C125.76 99.97 126.21 99.72 127.02 97.29C127.76 95.09 128.34 94.67 130.3 94.89C132.21 95.11 132.75 94.76 132.98 93.11C133.23 91.35 133.73 91.08 136.39 91.31C138.86 91.51 139.27 91.33 138.39 90.46C136.92 88.98 136.99 86.14 138.49 86.14C140.21 86.14 142.64 89.09 142.64 91.2C142.64 93.15 140.05 95.96 138.25 95.96C137.14 95.96 134.74 97.61 128.93 102.39C126.14 104.68 126 105.06 126.38 109.57C126.73 113.74 126.48 114.68 124.37 117.19C122.9 118.95 121.15 120.04 119.82 120.04C118.64 120.04 117.66 119.83 117.66 119.58ZM274.64 109.24C274.64 107.96 275.12 107.47 276.2 107.67C278.52 108.12 278.78 111.08 276.49 111.08C275.22 111.08 274.64 110.51 274.64 109.24ZM183.22 106.13C181.75 104.9 179.64 103.13 178.53 102.22C175.92 100.04 176.67 98.24 181.39 95.47C186.06 92.73 189.67 92.67 193.48 95.27C198.09 98.41 198.83 100.26 196.17 102.04C194.95 102.85 192.69 104.62 191.14 105.97C187.71 108.97 186.64 108.99 183.22 106.13ZM261.64 106.29C261.35 105.54 261.32 104.57 261.59 104.15C261.85 103.72 261.18 103.4 260.1 103.44C258.92 103.48 258.14 102.97 258.14 102.17C258.14 101.43 258.94 100.82 259.92 100.8C260.9 100.78 262.24 100.43 262.9 100.03C264.86 98.81 265.91 100.74 265.06 103.99C264.23 107.24 262.45 108.43 261.64 106.29ZM147.5 94.48C145.81 92.66 145.31 91.15 145.31 87.87C145.3 85.53 145.54 82.97 145.84 82.2C146.92 79.38 147.97 80.89 147.97 85.27C147.98 89.21 148.25 89.85 150.18 90.59C151.61 91.13 153.39 91.08 155.31 90.44C160.54 88.68 162.08 86.5 158.46 85.98C154.47 85.42 155.4 79.19 159.89 76.41C164.19 73.75 167.08 74 169.38 77.22C170.71 79.09 172.02 79.9 173.75 79.89C177.09 79.89 177.71 79.03 175.86 76.98C174.38 75.34 174.39 75.2 176.03 74.01C180.04 71.07 186.45 73.39 183.65 76.76C182.25 78.45 184.4 79.44 187.65 78.62C188.87 78.31 190.67 78.57 191.66 79.19C193.11 80.1 193.81 80.09 195.33 79.14C196.91 78.16 197.44 78.2 198.79 79.42C200.27 80.76 200.62 80.7 203.74 78.59C206.98 76.38 208.87 75.89 212.63 76.28C217.26 76.76 219.05 82.27 215.85 86.21C213.88 88.66 209.25 88.78 200.27 86.62C191.76 84.56 177.9 83.3 175.16 84.35C171.17 85.88 169.48 85.39 167.37 82.14C165.29 78.92 162.61 78.1 160.63 80.07C159.8 80.9 160.2 81.35 162.46 82.08C168.32 83.97 165.4 91.52 157.38 95.16C152.44 97.41 150.06 97.25 147.5 94.48ZM212.87 82.33C212.38 80.87 209.99 80.44 207 81.26L204.62 81.92L206.85 82.59C210.47 83.69 213.28 83.56 212.87 82.33ZM220.74 95.42C218.81 93.49 218.99 91.36 221.35 87.9C224.36 83.46 225.99 82.73 228.27 84.79C230.74 87.02 230.03 91.95 226.84 94.81C224.19 97.18 222.66 97.33 220.74 95.42ZM225.57 90.11C224.95 89.36 224.26 88.93 224.03 89.16C223.41 89.78 224.67 91.47 225.74 91.47C226.34 91.47 226.27 90.96 225.57 90.11ZM123.81 89.49C123.76 89.37 123.58 87.74 123.41 85.88C123.18 83.44 123.48 82.34 124.48 81.96C125.23 81.67 126.12 81.79 126.43 82.23C126.75 82.67 127.61 83.02 128.35 83.02C129.09 83.02 129.82 83.98 129.99 85.16C130.25 86.94 129.99 87.21 128.44 86.8C127.03 86.43 126.58 86.73 126.58 88.02C126.58 88.96 125.98 89.72 125.24 89.72C124.51 89.72 123.86 89.61 123.81 89.49ZM253.02 87.24C248.24 86.74 248.85 85.58 253.67 85.97C255.88 86.14 257.69 86.65 257.7 87.09C257.7 87.53 257.4 87.82 257.03 87.74C256.66 87.66 254.85 87.43 253.02 87.24ZM163.14 67.87C163.14 67.06 164.03 66.46 165.37 66.38C166.6 66.31 168.1 66.21 168.72 66.16C169.33 66.11 169.83 66.67 169.83 67.39C169.83 68.27 168.73 68.79 166.48 68.97C163.98 69.16 163.14 68.88 163.14 67.87ZM189.29 67.76C188.49 65.69 190.92 64.48 192.57 66.13C193.76 67.32 193.76 67.56 192.57 68.32C190.67 69.51 189.92 69.38 189.29 67.76Z" />
					</g>
				</g>
			</g>
		</g>
	</g>
</svg>