<?xml version="1.0" encoding="UTF-8" standalone="no"?>
<!DOCTYPE svg PUBLIC "-//W3C//DTD SVG 1.1//EN" "http://www.w3.org/Graphics/SVG/1.1/DTD/svg11.dtd">
<!-- Generated by Microsoft Visio, SVG Export PersonalEmail.svg Page-1 -->
<svg xmlns="http://www.w3.org/2000/svg" xmlns:xlink="http://www.w3.org/1999/xlink" xmlns:ev="http://www.w3.org/2001/xml-events"
		xmlns:v="http://schemas.microsoft.com/visio/2003/SVGExtensions/" width="7.26042in" height="10.0163in"
		viewBox="0 0 522.75 721.173" xml:space="preserve" color-interpolation-filters="sRGB" class="st3">
	<v:documentProperties v:langID="1033" v:metric="true" v:viewMarkup="false"/>

	<style type="text/css">
	<![CDATA[
		.st1 {fill:#5f01d1;stroke:none;stroke-linecap:butt;stroke-width:0.726936}
		.st2 {fill:#ffffff;stroke:none;stroke-linecap:butt;stroke-width:6.375}
		.st3 {fill:none;fill-rule:evenodd;font-size:12px;overflow:visible;stroke-linecap:square;stroke-miterlimit:3}
	]]>
	</style>

	<g v:mID="0" v:index="1" v:groupContext="foregroundPage">
		<title>Page-1</title>
		<v:pageProperties v:drawingScale="0.0393701" v:pageScale="0.0393701" v:drawingUnits="24" v:shadowOffsetX="9"
				v:shadowOffsetY="-9"/>
		<g id="group1-1" transform="translate(23.727,-0.726936)" v:mID="1" v:groupContext="group">
			<title>Sheet.1</title>
			<g id="group2-2" v:mID="2" v:groupContext="group">
				<title>layer1</title>
				<g id="shape3-3" v:mID="3" v:groupContext="shape">
					<title>path1139</title>
					<path d="M0 621.45 L28.28 621.45 L44.74 663.57 L61.42 621.45 L88.95 621.45 L47.5 721.17 L19.79 721.17 L31.14
								 694.75 L0 621.45 Z" class="st1"/>
				</g>
				<g id="shape4-5" v:mID="4" v:groupContext="shape" transform="translate(82.9579,-25.0916)">
					<title>path1141</title>
					<path d="M34.68 644.86 C13.43 644.86 0 663.92 0 682.89 C0 704.25 14.73 721.17 34.27 721.17 C48.86 721.17 54.35
								 712.29 54.35 712.29 L54.35 719.21 L79.02 719.21 L79.02 646.54 L54.35 646.54 L54.35 653.15 C54.35
								 653.15 48.22 644.86 34.68 644.86 ZM39.92 668.22 C49.73 668.22 54.78 675.97 54.78 682.97 C54.78 690.51
								 49.36 697.91 39.92 697.91 C32.1 697.91 25.03 691.51 25.03 683.29 C25.03 674.96 30.71 668.22 39.92
								 668.22 Z" class="st1"/>
				</g>
				<g id="shape5-7" v:mID="5" v:groupContext="shape" transform="translate(170.469,-27.0544)">
					<title>path1145</title>
					<path d="M0 721.17 L0 616.42 L25.8 616.42 L25.8 655.36 C25.8 655.36 31.92 646.84 44.76 646.84 C60.45 646.84 69.65
								 658.53 69.65 675.24 L69.65 721.17 L44.04 721.17 L44.04 681.54 C44.04 675.88 41.35 670.42 35.24 670.42
								 C29.03 670.42 25.8 675.96 25.8 681.54 L25.8 721.17 L0 721.17 L0 721.17 Z" class="st1"/>
				</g>
				<g id="shape6-9" v:mID="6" v:groupContext="shape" transform="translate(245.282,-25.0916)">
					<title>path1147</title>
					<path d="M38.82 644.87 C14.49 644.87 0 663.37 0 683.2 C0 705.75 17.54 721.17 38.91 721.17 C59.62 721.17 77.75
								 706.45 77.75 683.57 C77.75 658.54 58.77 644.87 38.82 644.87 ZM39.05 668.43 C47.64 668.43 53.59 675.59
								 53.59 683.22 C53.59 689.73 48.05 697.76 39.05 697.76 C30.8 697.76 24.62 691.15 24.62 683.15 C24.61
								 675.45 29.76 668.43 39.05 668.43 Z" class="st1"/>
				</g>
				<g id="shape7-11" v:mID="7" v:groupContext="shape" transform="translate(327.184,-25.0916)">
					<title>path1153</title>
					<path d="M38.82 644.87 C14.49 644.87 0 663.37 0 683.2 C0 705.75 17.54 721.17 38.91 721.17 C59.62 721.17 77.75
								 706.45 77.75 683.57 C77.75 658.54 58.77 644.87 38.82 644.87 ZM39.05 668.43 C47.64 668.43 53.59 675.59
								 53.59 683.22 C53.59 689.73 48.05 697.76 39.05 697.76 C30.8 697.76 24.62 691.15 24.62 683.15 C24.61
								 675.45 29.76 668.43 39.05 668.43 Z" class="st1"/>
				</g>
				<g id="shape8-13" v:mID="8" v:groupContext="shape" transform="translate(408.155,-25.5118)">
					<title>path1155</title>
					<path d="M17.13 686.91 C26.59 686.91 34.26 694.58 34.26 704.04 C34.26 713.5 26.59 721.17 17.13 721.17 C7.67 721.17
								 0 713.5 0 704.04 C0 694.58 7.67 686.91 17.13 686.91 Z" class="st1"/>
				</g>
				<g id="shape9-15" v:mID="9" v:groupContext="shape" transform="translate(417.205,-66.0632)">
					<title>path1157</title>
					<path d="M30.84 721.17 L0 721.17 L27.37 655.42 L58.09 655.42 L30.84 721.17 Z" class="st1"/>
				</g>
			</g>
		</g>
		<g id="group16-17" transform="translate(6.375,-153.798)" v:mID="16" v:groupContext="group">
			<title>Sheet.16</title>
			<g id="group17-18" v:mID="17" v:groupContext="group">
				<title>Page-1</title>
				<g id="group18-19" v:mID="18" v:groupContext="group">
					<title>Sheet.18</title>
					<g id="group19-20" v:mID="19" v:groupContext="group">
						<title>Sheet.19</title>
						<g id="shape20-21" v:mID="20" v:groupContext="shape">
							<title>Sheet.20</title>
							<path d="M471.75 667.62 L344.25 546.5 L471.75 425.37 L471.75 667.62 ZM58.65 682.92 L184.87 563.71 L193.8
										 555.42 C228.23 522.91 282.41 522.91 316.84 555.42 L325.76 563.71 L451.35 682.92 L58.65 682.92
										 ZM38.25 424.73 L165.75 545.86 L38.25 666.98 L38.25 424.73 ZM127.5 262.17 L382.5 262.17 L382.5
										 474.46 L325.12 529.28 C283.69 497.41 226.31 497.41 184.87 529.28 L127.5 474.46 L127.5 262.17
										 ZM420.75 279.38 L420.75 223.92 L331.5 223.92 L255 160.17 L178.5 223.92 L89.25 223.92 L89.25
										 280.02 L0 364.81 L0 721.17 L510 721.17 L510 364.81 L420.75 279.38 Z" class="st2"/>
						</g>
						<g id="shape21-23" v:mID="21" v:groupContext="shape" transform="translate(172.125,-255)">
							<title>Sheet.21</title>
							<path d="M82.87 659.33 C71.4 659.33 62.47 649.77 62.47 638.93 C62.47 627.46 72.04 618.53 82.87 618.53
										 C94.35 618.53 103.28 627.46 103.28 638.93 C103.28 650.41 94.35 659.33 82.87 659.33 ZM82.87
										 721.17 C97.54 721.17 111.56 717.34 124.31 710.97 C129.41 707.78 131.32 701.41 128.77 696.31
										 C125.59 691.21 119.21 689.3 114.11 691.85 C104.55 696.95 93.71 699.5 82.87 699.5 C49.09
										 699.5 21.04 671.45 21.67 637.66 C21.67 603.87 49.72 575.82 83.51 575.82 C117.3 575.82 145.35
										 603.23 145.35 637.66 L145.35 658.06 C133.88 658.06 124.95 649.13 124.95 637.66 C124.95 617.26
										 110.92 600.05 91.16 596.22 C71.4 592.4 51.64 603.23 44.62 621.72 C37.61 640.21 44.62 661.88
										 61.84 672.08 C79.05 682.28 101.36 679.1 114.75 663.8 C122.4 672.72 133.88 677.82 145.99
										 677.82 C157.46 677.82 166.39 668.9 166.39 657.42 L166.39 637.02 C166.39 591.12 129.41 554.15
										 83.51 554.15 C37.61 554.15 0.64 591.12 0.64 637.02 C0 683.56 36.97 720.53 82.87 721.17 Z"
									class="st2"/>
						</g>
					</g>
				</g>
			</g>
		</g>
	</g>
</svg>
