<?xml version="1.0" encoding="UTF-8" standalone="no"?>
<!DOCTYPE svg PUBLIC "-//W3C//DTD SVG 1.1//EN" "http://www.w3.org/Graphics/SVG/1.1/DTD/svg11.dtd">
<!-- Generated by Microsoft Visio, SVG Export PersonalEmail.svg Page-1 -->
<svg xmlns="http://www.w3.org/2000/svg" xmlns:xlink="http://www.w3.org/1999/xlink" xmlns:ev="http://www.w3.org/2001/xml-events"
		xmlns:v="http://schemas.microsoft.com/visio/2003/SVGExtensions/" width="7.12153in" height="5.98448in"
		viewBox="0 0 512.75 430.883" xml:space="preserve" color-interpolation-filters="sRGB" class="st3">
	<v:documentProperties v:langID="1033" v:metric="true" v:viewMarkup="false">
		<v:userDefs>
			<v:ud v:nameU="msvSubprocessMaster" v:prompt="" v:val="VT4(Rectangle)"/>
			<v:ud v:nameU="msvNoAutoConnect" v:val="VT0(1):26"/>
		</v:userDefs>
	</v:documentProperties>

	<style type="text/css">
	<![CDATA[
		.st1 {fill:#5f01d1;stroke:none;stroke-linecap:butt;stroke-width:0.726936}
		.st2 {fill:#000000;stroke:none;stroke-linecap:butt;stroke-width:6.375}
		.st3 {fill:none;fill-rule:evenodd;font-size:12px;overflow:visible;stroke-linecap:square;stroke-miterlimit:3}
	]]>
	</style>

	<g v:mID="0" v:index="1" v:groupContext="foregroundPage">
		<v:userDefs>
			<v:ud v:nameU="msvThemeOrder" v:val="VT0(0):26"/>
		</v:userDefs>
		<title>Page-1</title>
		<v:pageProperties v:drawingScale="0.0393701" v:pageScale="0.0393701" v:drawingUnits="24" v:shadowOffsetX="9"
				v:shadowOffsetY="-9"/>
		<g id="group1-1" transform="translate(18.7269,-18.7269)" v:mID="1" v:groupContext="group">
			<title>Sheet.1</title>
			<g id="group2-2" v:mID="2" v:groupContext="group">
				<title>layer1</title>
				<g id="shape3-3" v:mID="3" v:groupContext="shape">
					<title>path1139</title>
					<path d="M0 331.16 L28.28 331.16 L44.74 373.28 L61.42 331.16 L88.95 331.16 L47.5 430.88 L19.79 430.88 L31.14
								 404.46 L0 331.16 Z" class="st1"/>
				</g>
				<g id="shape4-5" v:mID="4" v:groupContext="shape" transform="translate(82.9579,-25.0916)">
					<title>path1141</title>
					<path d="M34.68 354.57 C13.43 354.57 0 373.63 0 392.6 C0 413.95 14.73 430.88 34.27 430.88 C48.86 430.88 54.35
								 422 54.35 422 L54.35 428.92 L79.02 428.92 L79.02 356.25 L54.35 356.25 L54.35 362.86 C54.35 362.86
								 48.22 354.57 34.68 354.57 ZM39.92 377.93 C49.73 377.93 54.78 385.68 54.78 392.68 C54.78 400.22 49.36
								 407.62 39.92 407.62 C32.1 407.62 25.03 401.22 25.03 393 C25.03 384.67 30.71 377.93 39.92 377.93
								 Z" class="st1"/>
				</g>
				<g id="shape5-7" v:mID="5" v:groupContext="shape" transform="translate(170.469,-27.0544)">
					<title>path1145</title>
					<path d="M0 430.88 L0 326.13 L25.8 326.13 L25.8 365.07 C25.8 365.07 31.92 356.55 44.76 356.55 C60.45 356.55 69.65
								 368.24 69.65 384.95 L69.65 430.88 L44.04 430.88 L44.04 391.24 C44.04 385.59 41.35 380.13 35.24 380.13
								 C29.03 380.13 25.8 385.67 25.8 391.24 L25.8 430.88 L0 430.88 L0 430.88 Z" class="st1"/>
				</g>
				<g id="shape6-9" v:mID="6" v:groupContext="shape" transform="translate(245.282,-25.0916)">
					<title>path1147</title>
					<path d="M38.82 354.58 C14.49 354.58 0 373.08 0 392.9 C0 415.46 17.54 430.88 38.91 430.88 C59.62 430.88 77.75
								 416.16 77.75 393.28 C77.75 368.25 58.77 354.58 38.82 354.58 ZM39.05 378.14 C47.64 378.14 53.59 385.3
								 53.59 392.93 C53.59 399.44 48.05 407.47 39.05 407.47 C30.8 407.47 24.62 400.86 24.62 392.86 C24.61
								 385.16 29.76 378.14 39.05 378.14 Z" class="st1"/>
				</g>
				<g id="shape7-11" v:mID="7" v:groupContext="shape" transform="translate(327.184,-25.0916)">
					<title>path1153</title>
					<path d="M38.82 354.58 C14.49 354.58 0 373.08 0 392.9 C0 415.46 17.54 430.88 38.91 430.88 C59.62 430.88 77.75
								 416.16 77.75 393.28 C77.75 368.25 58.77 354.58 38.82 354.58 ZM39.05 378.14 C47.64 378.14 53.59 385.3
								 53.59 392.93 C53.59 399.44 48.05 407.47 39.05 407.47 C30.8 407.47 24.62 400.86 24.62 392.86 C24.61
								 385.16 29.76 378.14 39.05 378.14 Z" class="st1"/>
				</g>
				<g id="shape8-13" v:mID="8" v:groupContext="shape" transform="translate(408.155,-25.5118)">
					<title>path1155</title>
					<path d="M17.13 396.62 C26.59 396.62 34.26 404.29 34.26 413.75 C34.26 423.21 26.59 430.88 17.13 430.88 C7.67
								 430.88 0 423.21 0 413.75 C0 404.29 7.67 396.62 17.13 396.62 Z" class="st1"/>
				</g>
				<g id="shape9-15" v:mID="9" v:groupContext="shape" transform="translate(417.205,-66.0632)">
					<title>path1157</title>
					<path d="M30.84 430.88 L0 430.88 L27.37 365.13 L58.09 365.13 L30.84 430.88 Z" class="st1"/>
				</g>
			</g>
		</g>
		<g id="group10-17" transform="translate(149.689,-171.798)" v:mID="10" v:groupContext="group">
			<title>Sheet.10</title>
			<g id="group11-18" v:mID="11" v:groupContext="group">
				<title>Sheet.11</title>
				<g id="shape12-19" v:mID="12" v:groupContext="shape">
					<title>Sheet.12</title>
					<path d="M197.37 408.48 L144.03 357.8 L197.37 307.13 L197.37 408.48 ZM24.54 414.88 L77.35 365 L81.08 361.54 C95.48
								 347.93 118.15 347.93 132.56 361.54 L136.29 365 L188.83 414.88 L24.54 414.88 ZM16 306.86 L69.35 357.54
								 L16 408.21 L16 306.86 ZM53.34 238.85 L160.03 238.85 L160.03 327.66 L136.02 350.6 C118.69 337.27
								 94.68 337.27 77.35 350.6 L53.34 327.66 L53.34 238.85 ZM176.03 246.05 L176.03 222.84 L138.69 222.84
								 L106.69 196.17 L74.68 222.84 L37.34 222.84 L37.34 246.32 L0 281.79 L0 430.88 L213.37 430.88 L213.37
								 281.79 L176.03 246.05 Z" class="st2"/>
				</g>
				<g id="shape13-21" v:mID="13" v:groupContext="shape" transform="translate(72.0131,-106.686)">
					<title>Sheet.13</title>
					<path d="M34.67 405.01 C29.87 405.01 26.14 401.01 26.14 396.48 C26.14 391.68 30.14 387.94 34.67 387.94 C39.47
								 387.94 43.21 391.68 43.21 396.48 C43.21 401.28 39.47 405.01 34.67 405.01 ZM34.67 430.88 C40.81 430.88
								 46.68 429.28 52.01 426.62 C54.14 425.28 54.94 422.61 53.88 420.48 C52.54 418.35 49.88 417.55 47.74
								 418.61 C43.74 420.75 39.21 421.81 34.67 421.81 C20.54 421.81 8.8 410.08 9.07 395.94 C9.07 381.81
								 20.8 370.07 34.94 370.07 C49.08 370.07 60.81 381.54 60.81 395.94 L60.81 404.48 C56.01 404.48 52.28
								 400.74 52.28 395.94 C52.28 387.41 46.41 380.21 38.14 378.61 C29.87 377.01 21.6 381.54 18.67 389.28
								 C15.74 397.01 18.67 406.08 25.87 410.35 C33.07 414.61 42.41 413.28 48.01 406.88 C51.21 410.61 56.01
								 412.75 61.08 412.75 C65.88 412.75 69.61 409.01 69.61 404.21 L69.61 395.68 C69.61 376.47 54.14 361
								 34.94 361 C15.74 361 0.27 376.47 0.27 395.68 C0 415.15 15.47 430.62 34.67 430.88 Z" class="st2"/>
				</g>
			</g>
		</g>
	</g>
</svg>
