<?xml version="1.0" encoding="UTF-8" standalone="no"?>
<!DOCTYPE svg PUBLIC "-//W3C//DTD SVG 1.1//EN" "http://www.w3.org/Graphics/SVG/1.1/DTD/svg11.dtd">
<!-- Generated by Microsoft Visio, SVG Export PersonalEmail.svg Page-1 -->
<svg xmlns="http://www.w3.org/2000/svg" xmlns:xlink="http://www.w3.org/1999/xlink" xmlns:ev="http://www.w3.org/2001/xml-events"
		xmlns:v="http://schemas.microsoft.com/visio/2003/SVGExtensions/" width="7.76042in" height="10.7781in"
		viewBox="0 0 558.75 776.026" xml:space="preserve" color-interpolation-filters="sRGB" class="st3">
	<v:documentProperties v:langID="1033" v:metric="true" v:viewMarkup="false">
		<v:userDefs>
			<v:ud v:nameU="msvSubprocessMaster" v:prompt="" v:val="VT4(Rectangle)"/>
			<v:ud v:nameU="msvNoAutoConnect" v:val="VT0(1):26"/>
		</v:userDefs>
	</v:documentProperties>

	<style type="text/css">
	<![CDATA[
		.st1 {fill:#5f01d1;stroke:none;stroke-linecap:butt;stroke-width:0.726936}
		.st2 {fill:#000000;stroke:none;stroke-linecap:butt;stroke-width:6.375}
		.st3 {fill:none;fill-rule:evenodd;font-size:12px;overflow:visible;stroke-linecap:square;stroke-miterlimit:3}
	]]>
	</style>

	<g v:mID="0" v:index="1" v:groupContext="foregroundPage">
		<v:userDefs>
			<v:ud v:nameU="msvThemeOrder" v:val="VT0(0):26"/>
		</v:userDefs>
		<title>Page-1</title>
		<v:pageProperties v:drawingScale="0.0393701" v:pageScale="0.0393701" v:drawingUnits="24" v:shadowOffsetX="9"
				v:shadowOffsetY="-9"/>
		<g id="group2-1" transform="translate(24.375,-18.7269)" v:mID="2" v:groupContext="group">
			<title>Sheet.2</title>
			<g id="group3-2" v:mID="3" v:groupContext="group">
				<title>layer1</title>
				<g id="shape4-3" v:mID="4" v:groupContext="shape">
					<title>path1139</title>
					<path d="M0 676.24 L30.34 676.24 L48.01 718.39 L65.91 676.24 L95.45 676.24 L50.96 776.03 L21.23 776.03 L33.41
								 749.58 L0 676.24 Z" class="st1"/>
				</g>
				<g id="shape5-5" v:mID="5" v:groupContext="shape" transform="translate(89.0151,-25.1082)">
					<title>path1141</title>
					<path d="M37.21 699.67 C14.41 699.67 0 718.73 0 737.72 C0 759.09 15.8 776.03 36.78 776.03 C52.42 776.03 58.32
								 767.14 58.32 767.14 L58.32 774.06 L84.79 774.06 L84.79 701.35 L58.32 701.35 L58.32 707.96 C58.32
								 707.96 51.74 699.67 37.21 699.67 ZM42.84 723.04 C53.36 723.04 58.78 730.8 58.78 737.8 C58.78 745.34
								 52.97 752.74 42.84 752.74 C34.44 752.74 26.85 746.34 26.85 738.12 C26.85 729.78 32.96 723.04 42.84
								 723.04 Z" class="st1"/>
				</g>
				<g id="shape6-7" v:mID="6" v:groupContext="shape" transform="translate(182.916,-27.0722)">
					<title>path1145</title>
					<path d="M0 776.03 L0 671.2 L27.68 671.2 L27.68 710.17 C27.68 710.17 34.25 701.64 48.02 701.64 C64.87 701.64
								 74.73 713.34 74.73 730.07 L74.73 776.03 L47.26 776.03 L47.26 736.36 C47.26 730.7 44.37 725.24 37.82
								 725.24 C31.15 725.24 27.68 730.79 27.68 736.36 L27.68 776.03 L0 776.03 L0 776.03 Z" class="st1"/>
				</g>
				<g id="shape7-9" v:mID="7" v:groupContext="shape" transform="translate(263.191,-25.1082)">
					<title>path1147</title>
					<path d="M41.65 699.68 C15.54 699.68 0 718.19 0 738.02 C0 760.59 18.82 776.03 41.75 776.03 C63.97 776.03 83.42
								 761.3 83.42 738.4 C83.42 713.35 63.06 699.68 41.65 699.68 ZM41.9 723.25 C51.12 723.25 57.5 730.41
								 57.5 738.05 C57.5 744.57 51.56 752.6 41.9 752.6 C33.05 752.6 26.41 745.98 26.41 737.98 C26.41 730.27
								 31.93 723.25 41.9 723.25 Z" class="st1"/>
				</g>
				<g id="shape8-11" v:mID="8" v:groupContext="shape" transform="translate(351.074,-25.1082)">
					<title>path1153</title>
					<path d="M41.65 699.68 C15.54 699.68 0 718.19 0 738.02 C0 760.59 18.82 776.03 41.75 776.03 C63.97 776.03 83.42
								 761.3 83.42 738.4 C83.42 713.35 63.06 699.68 41.65 699.68 ZM41.9 723.25 C51.12 723.25 57.5 730.41
								 57.5 738.05 C57.5 744.57 51.56 752.6 41.9 752.6 C33.05 752.6 26.41 745.98 26.41 737.98 C26.41 730.27
								 31.93 723.25 41.9 723.25 Z" class="st1"/>
				</g>
				<g id="shape9-13" v:mID="9" v:groupContext="shape" transform="translate(437.956,-25.5286)">
					<title>path1155</title>
					<path d="M18.38 741.74 C28.53 741.74 36.76 749.42 36.76 758.89 C36.76 768.35 28.53 776.03 18.38 776.03 C8.23
								 776.03 0 768.35 0 758.89 C0 749.42 8.23 741.74 18.38 741.74 Z" class="st1"/>
				</g>
				<g id="shape10-15" v:mID="10" v:groupContext="shape" transform="translate(447.668,-66.1067)">
					<title>path1157</title>
					<path d="M33.09 776.03 L0 776.03 L29.37 710.23 L62.33 710.23 L33.09 776.03 Z" class="st1"/>
				</g>
			</g>
		</g>
		<g id="group11-17" transform="translate(24.375,-190.651)" v:mID="11" v:groupContext="group">
			<title>Sheet.11</title>
			<g id="group12-18" v:mID="12" v:groupContext="group">
				<title>Sheet.12</title>
				<g id="shape13-19" v:mID="13" v:groupContext="shape">
					<title>Sheet.13</title>
					<path d="M471.75 722.48 L344.25 601.35 L471.75 480.23 L471.75 722.48 ZM58.65 737.78 L184.87 618.56 L193.8 610.28
								 C228.23 577.76 282.41 577.76 316.84 610.28 L325.76 618.56 L451.35 737.78 L58.65 737.78 ZM38.25 479.59
								 L165.75 600.71 L38.25 721.84 L38.25 479.59 ZM127.5 317.03 L382.5 317.03 L382.5 529.31 L325.12 584.14
								 C283.69 552.26 226.31 552.26 184.87 584.14 L127.5 529.31 L127.5 317.03 ZM420.75 334.24 L420.75 278.78
								 L331.5 278.78 L255 215.03 L178.5 278.78 L89.25 278.78 L89.25 334.88 L0 419.66 L0 776.03 L510 776.03
								 L510 419.66 L420.75 334.24 Z" class="st2"/>
				</g>
				<g id="shape14-21" v:mID="14" v:groupContext="shape" transform="translate(172.125,-255)">
					<title>Sheet.14</title>
					<path d="M82.87 714.19 C71.4 714.19 62.47 704.63 62.47 693.79 C62.47 682.31 72.04 673.39 82.87 673.39 C94.35
								 673.39 103.28 682.31 103.28 693.79 C103.28 705.26 94.35 714.19 82.87 714.19 ZM82.87 776.03 C97.54
								 776.03 111.56 772.2 124.31 765.83 C129.41 762.64 131.32 756.26 128.77 751.16 C125.59 746.06 119.21
								 744.15 114.11 746.7 C104.55 751.8 93.71 754.35 82.87 754.35 C49.09 754.35 21.04 726.3 21.67 692.51
								 C21.67 658.73 49.72 630.68 83.51 630.68 C117.3 630.68 145.35 658.09 145.35 692.51 L145.35 712.91
								 C133.88 712.91 124.95 703.99 124.95 692.51 C124.95 672.11 110.92 654.9 91.16 651.08 C71.4 647.25
								 51.64 658.09 44.62 676.58 C37.61 695.06 44.62 716.74 61.84 726.94 C79.05 737.14 101.36 733.95 114.75
								 718.65 C122.4 727.58 133.88 732.68 145.99 732.68 C157.46 732.68 166.39 723.75 166.39 712.28 L166.39
								 691.88 C166.39 645.98 129.41 609 83.51 609 C37.61 609 0.64 645.98 0.64 691.88 C0 738.41 36.97 775.39
								 82.87 776.03 Z" class="st2"/>
				</g>
			</g>
		</g>
	</g>
</svg>
