<?xml version="1.0" encoding="UTF-8" standalone="no"?>
<!DOCTYPE svg PUBLIC "-//W3C//DTD SVG 1.1//EN" "http://www.w3.org/Graphics/SVG/1.1/DTD/svg11.dtd">
<!-- Generated by Microsoft Visio, SVG Export Programming.svg Page-1 -->
<svg xmlns="http://www.w3.org/2000/svg" xmlns:xlink="http://www.w3.org/1999/xlink" xmlns:ev="http://www.w3.org/2001/xml-events"
		xmlns:v="http://schemas.microsoft.com/visio/2003/SVGExtensions/" width="7.76042in" height="6.16667in"
		viewBox="0 0 558.75 444" xml:space="preserve" color-interpolation-filters="sRGB" class="st2">
	<v:documentProperties v:langID="1033" v:metric="true" v:viewMarkup="false">
		<v:userDefs>
			<v:ud v:nameU="msvSubprocessMaster" v:prompt="" v:val="VT4(Rectangle)"/>
			<v:ud v:nameU="msvNoAutoConnect" v:val="VT0(1):26"/>
		</v:userDefs>
	</v:documentProperties>

	<style type="text/css">
	<![CDATA[
		.st1 {fill:#ff0047;stroke:none;stroke-linecap:butt;stroke-width:6.375}
		.st2 {fill:none;fill-rule:evenodd;font-size:12px;overflow:visible;stroke-linecap:square;stroke-miterlimit:3}
	]]>
	</style>

	<g v:mID="0" v:index="1" v:groupContext="foregroundPage">
		<v:userDefs>
			<v:ud v:nameU="msvThemeOrder" v:val="VT0(0):26"/>
		</v:userDefs>
		<title>Page-1</title>
		<v:pageProperties v:drawingScale="0.0393701" v:pageScale="0.0393701" v:drawingUnits="24" v:shadowOffsetX="9"
				v:shadowOffsetY="-9"/>
		<g id="group1-1" transform="translate(24.375,-24.375)" v:mID="1" v:groupContext="group">
			<title>Sheet.1</title>
			<g id="shape2-2" v:mID="2" v:groupContext="shape" transform="translate(96.7088,-93.0113)">
				<title>Sheet.2</title>
				<path d="M72.8 444 L0 371.26 L72.8 298.52 L90.78 316.5 L36.08 371.26 L90.78 426.02 L72.8 444 Z" class="st1"/>
			</g>
			<g id="shape3-4" v:mID="3" v:groupContext="shape" transform="translate(322.511,-93.0113)">
				<title>Sheet.3</title>
				<path d="M17.98 444 L0 426.02 L54.7 371.26 L0 316.5 L17.98 298.52 L90.78 371.26 L17.98 444 Z" class="st1"/>
			</g>
			<g id="shape4-6" v:mID="4" v:groupContext="shape" transform="translate(-174.319,190.207) rotate(-67.49)">
				<title>Sheet.4</title>
				<rect x="0" y="418.5" width="159.311" height="25.5" class="st1"/>
			</g>
			<g id="shape5-8" v:mID="5" v:groupContext="shape">
				<title>Sheet.5</title>
				<path d="M0 48.75 L0 444 L510 444 L510 48.75 L0 48.75 ZM439.88 87 C446.92 87 452.63 92.71 452.63 99.75 C452.63 106.79
							 446.92 112.5 439.88 112.5 C432.83 112.5 427.12 106.79 427.12 99.75 C427.12 92.71 432.83 87 439.88 87
							 ZM395.25 87 C402.29 87 408 92.71 408 99.75 C408 106.79 402.29 112.5 395.25 112.5 C388.21 112.5 382.5
							 106.79 382.5 99.75 C382.5 92.71 388.21 87 395.25 87 ZM350.62 87 C357.67 87 363.38 92.71 363.38 99.75
							 C363.38 106.79 357.67 112.5 350.62 112.5 C343.58 112.5 337.88 106.79 337.88 99.75 C337.88 92.71 343.58
							 87 350.62 87 ZM471.75 405.75 L38.25 405.75 L38.25 150.75 L471.75 150.75 L471.75 405.75 Z" class="st1"/>
			</g>
		</g>
	</g>
</svg>
