<?xml version="1.0" encoding="UTF-8" standalone="no"?>
<!DOCTYPE svg PUBLIC "-//W3C//DTD SVG 1.1//EN" "http://www.w3.org/Graphics/SVG/1.1/DTD/svg11.dtd">
<!-- Generated by Microsoft Visio, SVG Export Research interests.svg Page-1 -->
<svg xmlns="http://www.w3.org/2000/svg" xmlns:xlink="http://www.w3.org/1999/xlink" xmlns:ev="http://www.w3.org/2001/xml-events"
		xmlns:v="http://schemas.microsoft.com/visio/2003/SVGExtensions/" width="7.68299in" height="7.69185in"
		viewBox="0 0 553.175 553.813" xml:space="preserve" color-interpolation-filters="sRGB" class="st2">
	<v:documentProperties v:langID="1033" v:metric="true" v:viewMarkup="false">
		<v:userDefs>
			<v:ud v:nameU="msvSubprocessMaster" v:prompt="" v:val="VT4(Rectangle)"/>
			<v:ud v:nameU="msvNoAutoConnect" v:val="VT0(1):26"/>
		</v:userDefs>
	</v:documentProperties>

	<style type="text/css">
	<![CDATA[
		.st1 {fill:#ff0047;stroke:none;stroke-linecap:butt;stroke-width:6.375}
		.st2 {fill:none;fill-rule:evenodd;font-size:12px;overflow:visible;stroke-linecap:square;stroke-miterlimit:3}
	]]>
	</style>

	<g v:mID="0" v:index="1" v:groupContext="foregroundPage">
		<v:userDefs>
			<v:ud v:nameU="msvThemeOrder" v:val="VT0(0):26"/>
		</v:userDefs>
		<title>Page-1</title>
		<v:pageProperties v:drawingScale="0.0393701" v:pageScale="0.0393701" v:drawingUnits="24" v:shadowOffsetX="9"
				v:shadowOffsetY="-9"/>
		<g id="group1-1" transform="translate(23.741,-20.0719)" v:mID="1" v:groupContext="group">
			<title>Sheet.1</title>
			<g id="shape2-2" v:mID="2" v:groupContext="shape">
				<title>Sheet.2</title>
				<path d="M413.1 393.8 C402.9 383.6 387.6 378.5 373.57 381.69 L344.89 353.64 C370.39 320.49 384.41 279.69 384.41 237.61
							 C385.05 131.15 298.99 45.09 193.16 44.45 C87.34 43.81 1.27 129.88 0.64 235.7 C0 341.53 86.06 427.59
							 191.89 428.23 C233.96 428.23 275.4 414.2 309.19 388.7 L337.24 416.75 C334.69 431.41 339.15 446.08 349.35
							 456.91 L429.04 536.6 C446.25 553.81 474.94 553.81 492.15 536.6 C509.36 519.39 509.36 490.7 492.15 473.49
							 L413.1 393.8 ZM193.16 389.98 C108.37 389.98 40.16 321.76 40.16 236.98 C40.16 152.19 108.37 83.98 193.16
							 83.98 C277.95 83.98 346.16 152.19 346.16 236.98 C346.16 321.13 277.31 389.98 193.16 389.98 Z"
						class="st1"/>
			</g>
			<g id="shape3-4" v:mID="3" v:groupContext="shape" transform="translate(56.1,-212.925)">
				<title>Sheet.3</title>
				<path d="M274.13 440.34 L237.79 440.34 C234.6 440.98 231.41 442.89 229.5 445.44 L205.28 471.58 L184.88 400.81 C182.96
							 395.08 176.59 391.25 170.85 393.16 C167.66 394.44 164.48 396.35 163.2 400.18 L124.95 501.54 L98.81 361.29
							 C97.54 354.91 91.8 351.09 86.06 352.36 C82.24 353 79.05 356.19 77.14 360.01 L49.73 440.34 L0 440.34
							 L0 465.84 L58.01 465.84 C63.11 465.2 67.58 461.38 68.85 456.28 L84.79 407.83 L110.29 544.89 C110.93
							 549.99 115.39 553.81 120.49 553.81 L121.76 553.81 C126.23 553.81 130.69 551.26 132.6 546.8 L173.4 439.7
							 L189.98 497.08 C191.89 502.81 197.63 506.64 204 504.73 C205.91 504.09 207.83 502.81 209.1 501.54 L243.53
							 465.84 L274.76 465.84 L274.76 440.34 L274.13 440.34 Z" class="st1"/>
			</g>
		</g>
	</g>
</svg>
