<?xml version="1.0" encoding="UTF-8" standalone="no"?>
<!DOCTYPE svg PUBLIC "-//W3C//DTD SVG 1.1//EN" "http://www.w3.org/Graphics/SVG/1.1/DTD/svg11.dtd">
<!-- Generated by Microsoft Visio, SVG Export Skills.svg Page-1 -->
<svg xmlns="http://www.w3.org/2000/svg" xmlns:xlink="http://www.w3.org/1999/xlink" xmlns:ev="http://www.w3.org/2001/xml-events"
		xmlns:v="http://schemas.microsoft.com/visio/2003/SVGExtensions/" width="7.17604in" height="7.76042in"
		viewBox="0 0 516.675 558.75" xml:space="preserve" color-interpolation-filters="sRGB" class="st2">
	<v:documentProperties v:langID="1033" v:metric="true" v:viewMarkup="false">
		<v:userDefs>
			<v:ud v:nameU="msvSubprocessMaster" v:prompt="" v:val="VT4(Rectangle)"/>
			<v:ud v:nameU="msvNoAutoConnect" v:val="VT0(1):26"/>
		</v:userDefs>
	</v:documentProperties>

	<style type="text/css">
	<![CDATA[
		.st1 {fill:#ff0047;stroke:none;stroke-linecap:butt;stroke-width:6.375}
		.st2 {fill:none;fill-rule:evenodd;font-size:12px;overflow:visible;stroke-linecap:square;stroke-miterlimit:3}
	]]>
	</style>

	<g v:mID="0" v:index="1" v:groupContext="foregroundPage">
		<v:userDefs>
			<v:ud v:nameU="msvThemeOrder" v:val="VT0(0):26"/>
		</v:userDefs>
		<title>Page-1</title>
		<v:pageProperties v:drawingScale="0.0393701" v:pageScale="0.0393701" v:drawingUnits="24" v:shadowOffsetX="9"
				v:shadowOffsetY="-9"/>
		<g id="group7-1" transform="translate(18,-24.375)" v:mID="7" v:groupContext="group">
			<title>Sheet.7</title>
			<g id="shape8-2" v:mID="8" v:groupContext="shape" transform="translate(200.175,-216.75)">
				<title>Sheet.8</title>
				<ellipse cx="38.25" cy="520.5" rx="38.25" ry="38.25" class="st1"/>
			</g>
			<g id="shape9-4" v:mID="9" v:groupContext="shape">
				<title>Sheet.9</title>
				<path d="M462.83 176.25 C451.99 157.76 427.76 148.84 394.61 148.84 C373.58 148.84 349.35 152.66 322.58 159.67 C304.09
							 92.74 273.49 48.75 238.42 48.75 C204 48.75 172.76 92.1 154.91 158.4 C129.41 152.02 106.46 148.2 86.06
							 148.2 C52.91 148.2 28.69 157.12 17.85 175.61 C0 206.21 23.59 255.3 72.67 305.02 C25.5 353.47 3.82 400.65
							 21.04 430.61 C31.87 449.1 56.1 458.02 89.25 458.02 C108.38 458.02 130.69 454.84 154.91 449.1 C173.4
							 515.4 204 558.75 238.42 558.75 C272.85 558.75 304.09 515.4 321.94 449.1 C347.44 455.47 370.39 459.3
							 390.79 459.3 C423.94 459.3 448.16 450.37 459 431.89 C476.21 401.92 454.54 354.75 407.36 306.3 C457.72
							 255.94 480.68 206.85 462.83 176.25 ZM394.61 174.34 C418.2 174.34 435.41 180.07 440.51 189 C450.08 205.57
							 432.86 244.46 389.51 287.81 C374.21 273.79 357 259.76 337.87 246.37 C335.96 224.7 332.77 203.66 328.31
							 183.9 C352.54 177.52 375.49 174.34 394.61 174.34 ZM280.5 370.05 C267.11 377.7 253.73 384.71 240.34 391.09
							 C226.95 384.71 213.56 377.7 200.18 370.05 C187.42 362.4 174.67 354.75 163.2 347.1 C161.93 333.07 161.93
							 319.05 161.93 303.75 C161.93 289.73 162.56 276.34 163.2 262.95 C175.95 254.02 189.34 245.74 204 237.45
							 C216.11 230.44 228.22 224.06 240.34 218.32 C252.45 224.06 264.56 230.44 276.67 237.45 C289.43 245.1
							 302.17 252.75 313.65 260.4 C314.92 274.42 314.92 288.45 314.92 303.75 C314.92 319.69 314.29 334.99 313.01
							 349.65 C302.81 356.66 291.98 363.04 280.5 370.05 ZM309.82 382.16 C307.91 394.27 306 406.39 304.09 417.22
							 C293.25 413.4 281.78 409.58 270.3 404.47 C277.95 400.65 285.6 396.19 293.25 391.72 C298.99 388.54 304.73
							 385.35 309.82 382.16 ZM210.37 404.47 C197.62 409.58 185.51 414.04 173.4 417.86 C170.85 405.75 168.94
							 393 167.02 379.61 C174.04 384.07 180.41 387.9 188.06 392.36 C195.07 396.19 202.72 400.65 210.37 404.47
							 ZM137.06 327.97 C126.86 320.32 117.94 312.67 109.65 305.02 C117.94 297.37 127.5 289.73 137.06 282.07
							 C137.06 289.09 136.43 296.1 136.43 303.75 C136.43 312.04 136.43 320.32 137.06 327.97 ZM166.39 230.44
							 C168.3 216.41 170.21 203.02 172.76 190.27 C184.87 194.1 197.62 199.2 210.37 204.3 C204 207.49 196.99
							 211.31 190.61 215.14 C182.96 220.24 174.67 225.34 166.39 230.44 ZM269.66 204.3 C281.14 199.2 292.61
							 195.37 304.09 191.55 C306.64 203.02 308.55 215.14 310.46 227.89 C303.45 223.42 297.07 219.6 289.43 215.14
							 C283.05 211.95 276.67 208.12 269.66 204.3 ZM339.79 279.52 C351.26 288.45 361.46 296.74 371.02 305.66
							 C361.46 313.95 351.26 322.87 339.79 331.16 C340.42 322.24 340.42 313.31 340.42 304.39 C340.42 295.46
							 340.42 287.17 339.79 279.52 ZM238.42 74.25 C257.55 74.25 282.41 108.04 298.35 166.69 C279.86 173.06
							 260.1 180.71 240.34 189.64 C219.3 180.07 198.9 171.79 179.14 165.41 C195.07 107.4 219.3 74.25 238.42
							 74.25 ZM39.52 189 C45.26 179.44 61.84 174.34 85.43 174.34 C103.91 174.34 124.95 177.52 147.9 183.26
							 C143.44 203.66 140.25 225.97 138.34 248.92 C120.49 261.67 104.55 274.42 90.52 287.81 C47.81 244.46 29.96
							 205.57 39.52 189 ZM89.25 433.16 C65.66 433.16 48.45 427.42 43.35 418.5 C33.79 401.92 50.36 364.95 91.16
							 322.87 C105.82 335.62 121.76 348.37 138.97 361.12 C140.89 383.44 144.08 405.11 148.54 424.87 C127.5
							 430.61 107.1 433.16 89.25 433.16 ZM238.42 533.25 C219.3 533.25 195.07 500.1 179.14 442.72 C198.9 436.35
							 219.3 428.7 240.34 419.14 C260.1 428.06 279.23 435.71 297.71 441.45 C281.78 500.1 257.55 533.25 238.42
							 533.25 ZM437.33 418.5 C431.59 428.06 415.01 433.16 391.42 433.16 C372.94 433.16 351.26 429.97 328.95
							 424.24 C332.77 405.11 335.96 385.35 337.87 363.67 C357 350.29 374.21 336.9 389.51 322.87 C430.31 364.95
							 446.89 401.92 437.33 418.5 Z" class="st1"/>
			</g>
		</g>
	</g>
</svg>
