<?xml version="1.0" encoding="UTF-8" standalone="no"?>
<!DOCTYPE svg PUBLIC "-//W3C//DTD SVG 1.1//EN" "http://www.w3.org/Graphics/SVG/1.1/DTD/svg11.dtd">
<!-- Generated by Microsoft Visio, SVG Export Software.svg Page-1 -->
<svg xmlns="http://www.w3.org/2000/svg" xmlns:xlink="http://www.w3.org/1999/xlink" xmlns:ev="http://www.w3.org/2001/xml-events"
		xmlns:v="http://schemas.microsoft.com/visio/2003/SVGExtensions/" width="8.82292in" height="5.63542in"
		viewBox="0 0 635.25 405.75" xml:space="preserve" color-interpolation-filters="sRGB" class="st2">
	<v:documentProperties v:langID="1033" v:metric="true" v:viewMarkup="false">
		<v:userDefs>
			<v:ud v:nameU="msvSubprocessMaster" v:prompt="" v:val="VT4(Rectangle)"/>
			<v:ud v:nameU="msvNoAutoConnect" v:val="VT0(1):26"/>
		</v:userDefs>
	</v:documentProperties>

	<style type="text/css">
	<![CDATA[
		.st1 {fill:#ff0047;stroke:none;stroke-linecap:butt;stroke-width:6.375}
		.st2 {fill:none;fill-rule:evenodd;font-size:12px;overflow:visible;stroke-linecap:square;stroke-miterlimit:3}
	]]>
	</style>

	<g v:mID="0" v:index="1" v:groupContext="foregroundPage">
		<v:userDefs>
			<v:ud v:nameU="msvThemeOrder" v:val="VT0(0):26"/>
		</v:userDefs>
		<title>Page-1</title>
		<v:pageProperties v:drawingScale="0.0393701" v:pageScale="0.0393701" v:drawingUnits="24" v:shadowOffsetX="9"
				v:shadowOffsetY="-9"/>
		<g id="group1-1" transform="translate(24.375,-24.375)" v:mID="1" v:groupContext="group">
			<title>Sheet.1</title>
			<g id="shape2-2" v:mID="2" v:groupContext="shape" transform="translate(76.5,-63.75)">
				<title>Sheet.2</title>
				<path d="M395.25 367.5 L38.25 367.5 L38.25 150.75 L395.25 150.75 L395.25 367.5 ZM433.5 138 C433.5 123.97 422.03 112.5
							 408 112.5 L25.5 112.5 C11.48 112.5 0 123.97 0 138 L0 405.75 L433.5 405.75 L433.5 138 Z" class="st1"/>
			</g>
			<g id="shape3-4" v:mID="3" v:groupContext="shape">
				<title>Sheet.3</title>
				<path d="M331.5 367.5 L331.5 373.87 C331.5 377.7 328.95 380.25 325.13 380.25 L261.38 380.25 C257.55 380.25 255 377.7
							 255 373.87 L255 367.5 L0 367.5 L0 380.25 C0 394.27 11.48 405.75 25.5 405.75 L561 405.75 C575.03 405.75
							 586.5 394.27 586.5 380.25 L586.5 367.5 L331.5 367.5 Z" class="st1"/>
			</g>
		</g>
	</g>
</svg>
