<?xml version="1.0" encoding="UTF-8" standalone="no"?>
<!DOCTYPE svg PUBLIC "-//W3C//DTD SVG 1.1//EN" "http://www.w3.org/Graphics/SVG/1.1/DTD/svg11.dtd">
<!-- Generated by Microsoft Visio, SVG Export Teaching Experience.svg Page-1 -->
<svg xmlns="http://www.w3.org/2000/svg" xmlns:xlink="http://www.w3.org/1999/xlink" xmlns:ev="http://www.w3.org/2001/xml-events"
		xmlns:v="http://schemas.microsoft.com/visio/2003/SVGExtensions/" width="8.18984in" height="7.49479in"
		viewBox="0 0 589.669 539.625" xml:space="preserve" color-interpolation-filters="sRGB" class="st2">
	<v:documentProperties v:langID="1033" v:metric="true" v:viewMarkup="false">
		<v:userDefs>
			<v:ud v:nameU="msvSubprocessMaster" v:prompt="" v:val="VT4(Rectangle)"/>
			<v:ud v:nameU="msvNoAutoConnect" v:val="VT0(1):26"/>
		</v:userDefs>
	</v:documentProperties>

	<style type="text/css">
	<![CDATA[
		.st1 {fill:#ff0047;stroke:none;stroke-linecap:butt;stroke-width:6.375}
		.st2 {fill:none;fill-rule:evenodd;font-size:12px;overflow:visible;stroke-linecap:square;stroke-miterlimit:3}
	]]>
	</style>

	<g v:mID="0" v:index="1" v:groupContext="foregroundPage">
		<v:userDefs>
			<v:ud v:nameU="msvThemeOrder" v:val="VT0(0):26"/>
		</v:userDefs>
		<title>Page-1</title>
		<v:pageProperties v:drawingScale="0.0393701" v:pageScale="0.0393701" v:drawingUnits="24" v:shadowOffsetX="9"
				v:shadowOffsetY="-9"/>
		<g id="group1-1" transform="translate(24.375,-24.375)" v:mID="1" v:groupContext="group">
			<title>Sheet.1</title>
			<g id="shape2-2" v:mID="2" v:groupContext="shape" transform="translate(200.047,-91.29)">
				<title>Sheet.2</title>
				<ellipse cx="28.9425" cy="510.682" rx="28.9425" ry="28.9425" class="st1"/>
			</g>
			<g id="shape3-4" v:mID="3" v:groupContext="shape" transform="translate(171.169,-25.5)">
				<title>Sheet.3</title>
				<path d="M114.75 539.62 L114.75 510.68 C114.66 506.17 112.55 501.94 109.01 499.14 C100.7 492.73 91.18 488.05 81.03
							 485.37 C73.36 483.02 65.39 481.82 57.38 481.8 C49.37 481.93 41.41 483.13 33.72 485.37 C23.68 488.35
							 14.22 493 5.74 499.14 C2.2 501.94 0.09 506.17 0 510.68 L0 539.62 L114.75 539.62 Z" class="st1"/>
			</g>
			<g id="shape4-6" v:mID="4" v:groupContext="shape" transform="translate(326.655,-91.29)">
				<title>Sheet.4</title>
				<ellipse cx="28.9425" cy="510.682" rx="28.9425" ry="28.9425" class="st1"/>
			</g>
			<g id="shape5-8" v:mID="5" v:groupContext="shape" transform="translate(298.669,-25.5)">
				<title>Sheet.5</title>
				<path d="M114.75 539.62 L114.75 510.68 C114.66 506.17 112.55 501.94 109.01 499.14 C100.7 492.73 91.18 488.05 81.03
							 485.37 C73.36 483.02 65.39 481.82 57.38 481.8 C49.37 481.93 41.41 483.13 33.72 485.37 C23.68 488.35
							 14.22 493 5.74 499.14 C2.2 501.94 0.09 506.17 0 510.68 L0 539.62 L114.75 539.62 Z" class="st1"/>
			</g>
			<g id="shape6-10" v:mID="6" v:groupContext="shape" transform="translate(454.155,-91.29)">
				<title>Sheet.6</title>
				<ellipse cx="28.9425" cy="510.682" rx="28.9425" ry="28.9425" class="st1"/>
			</g>
			<g id="shape7-12" v:mID="7" v:groupContext="shape" transform="translate(426.169,-25.5)">
				<title>Sheet.7</title>
				<path d="M114.75 539.62 L114.75 510.68 C114.66 506.17 112.55 501.94 109.01 499.14 C100.7 492.73 91.18 488.05 81.03
							 485.37 C73.36 483.02 65.39 481.82 57.38 481.8 C49.37 481.93 41.41 483.13 33.72 485.37 C23.68 488.35
							 14.22 493 5.74 499.14 C2.2 501.94 0.09 506.17 0 510.68 L0 539.62 L114.75 539.62 Z" class="st1"/>
			</g>
			<g id="shape8-14" v:mID="8" v:groupContext="shape" transform="translate(66.2363,-349.987)">
				<title>Sheet.8</title>
				<ellipse cx="37.8675" cy="501.757" rx="37.8675" ry="37.8675" class="st1"/>
			</g>
			<g id="shape9-16" v:mID="9" v:groupContext="shape">
				<title>Sheet.9</title>
				<path d="M327.42 137.17 C323.67 133.48 317.65 133.48 313.91 137.17 L231.54 219.54 C224.96 217.68 217.88 219.48 212.99
							 224.25 C211.65 225.59 187.87 264.48 187.87 264.48 L180.73 234.07 C179.79 230.15 177.83 226.55 175.06
							 223.62 C163.31 214.12 149.79 207.05 135.28 202.83 C125.02 200.64 114.59 199.38 104.1 199.07 C93.53 199.24
							 83.02 200.82 72.87 203.79 C58.23 207.63 44.65 214.73 33.15 224.57 C30.35 227.48 28.39 231.1 27.48 235.03
							 C27.48 235.03 0 350.41 0 352.33 C0 362.89 8.56 371.45 19.13 371.45 C27.59 371.24 34.9 365.48 37.1 357.3
							 L56.99 275 L56.99 539.62 L94.67 539.62 L94.67 369.35 L113.79 369.35 L113.79 539.62 L151.41 539.62 L151.41
							 273.79 L158.42 303.75 C158.91 305.82 160.28 307.57 162.18 308.53 C169.51 314.16 178.44 317.31 187.68
							 317.52 C193.7 318.36 199.66 315.65 202.98 310.57 L241.87 246.82 C244.35 242.9 245.29 238.2 244.48 233.62
							 L327.36 150.75 C331.11 147.01 331.14 140.94 327.42 137.17 Z" class="st1"/>
			</g>
			<g id="shape10-18" v:mID="10" v:groupContext="shape" transform="translate(120.169,-229.5)">
				<title>Sheet.10</title>
				<path d="M337.88 278.25 L25.5 278.25 C11.42 278.25 0 289.67 0 303.75 L0 326.7 C9.75 329.35 18.57 334.65 25.5 342
							 L25.5 303.75 L337.88 303.75 L337.88 514.12 L120.3 514.12 L104.74 539.62 L337.88 539.62 C351.96 539.62
							 363.38 528.21 363.38 514.12 L363.38 303.75 C363.38 289.67 351.96 278.25 337.88 278.25 Z" class="st1"/>
			</g>
		</g>
	</g>
</svg>
